<?xml version="1.0" encoding="UTF-8" standalone="no"?><!DOCTYPE svg PUBLIC "-//W3C//DTD SVG 1.1//EN" "http://www.w3.org/Graphics/SVG/1.1/DTD/svg11.dtd"><svg width="100%" height="100%" viewBox="0 0 72 72" version="1.1" xmlns="http://www.w3.org/2000/svg" xmlns:xlink="http://www.w3.org/1999/xlink" xml:space="preserve" xmlns:serif="http://www.serif.com/" style="fill-rule:evenodd;clip-rule:evenodd;stroke-linejoin:round;stroke-miterlimit:2;"><rect x="0" y="0" width="72" height="72" style="fill:none;"/><clipPath id="_clip1"><rect x="0" y="0" width="72" height="72"/></clipPath><g clip-path="url(#_clip1)"><rect x="-10.8" y="-10.8" width="93.6" height="93.6" style="fill:none;"/><g id="Emblem"><g><path d="M36,23.52l0,-9.984l4.992,4.992m-12.48,34.944l-0,1.248c-0,0.993 0.394,1.945 1.097,2.647c0.702,0.703 1.654,1.097 2.647,1.097l0,-0c2.068,-0 3.744,-1.676 3.744,-3.744l0,-16.224" style="fill:none;stroke:#fff;stroke-width:4.99px;stroke-linecap:round;stroke-linejoin:miter;stroke-miterlimit:3;"/><path d="M36,27.264l0,-3.744m0,14.976l0,-3.744" style="fill:none;stroke:#fff;stroke-width:4.99px;stroke-miterlimit:3;"/><path d="M43.488,40.992l4.992,-0c2.757,-0 4.992,-2.235 4.992,-4.992l0,-0c0,-2.757 -2.235,-4.992 -4.992,-4.992l-29.952,-0l4.992,4.992m0,12.48l-1.248,-0c-0.993,0 -1.945,-0.394 -2.647,-1.097c-0.703,-0.702 -1.097,-1.654 -1.097,-2.647l0,-0c0,-2.068 1.676,-3.744 3.744,-3.744l6.24,-0" style="fill:none;stroke:#fff;stroke-width:4.99px;stroke-linecap:round;stroke-linejoin:miter;stroke-miterlimit:3;"/><path d="M39.744,40.992l3.744,-0m-14.976,-0l3.744,-0" style="fill:none;stroke:#fff;stroke-width:4.99px;stroke-miterlimit:3;"/></g></g><path id="Star" d="M64.08,14.472l-1.56,-4.68l-4.68,-1.56l4.68,-1.56l1.56,-4.68l1.56,4.68l4.68,1.56l-4.68,1.56l-1.56,4.68Z" style="fill:#fff;"/></g></svg>