<?xml version="1.0" encoding="UTF-8" standalone="no"?>
<!DOCTYPE svg PUBLIC "-//W3C//DTD SVG 1.1//EN" "http://www.w3.org/Graphics/SVG/1.1/DTD/svg11.dtd">
<svg width="100%" height="100%" viewBox="0 0 240 240" version="1.1" xmlns="http://www.w3.org/2000/svg" xmlns:xlink="http://www.w3.org/1999/xlink" xml:space="preserve" xmlns:serif="http://www.serif.com/" style="fill-rule:evenodd;clip-rule:evenodd;stroke-linejoin:round;stroke-miterlimit:2;">
    <g transform="matrix(1,0,0,1,-105,0)">
        <g id="Main" transform="matrix(0.4,0,0,0.8,105,-272)">
            <rect x="0" y="340" width="600" height="300" style="fill:none;"/>
            <g id="Seal" transform="matrix(0.964286,0,0,0.5,-278.571,340)">
                <g>
                    <path d="M600,200L600,120L641.481,160M537.778,440L537.778,450.005C537.778,466.571 551.704,480 568.884,480C568.885,480 568.887,480 568.889,480C577.14,480 585.053,476.839 590.888,471.213C596.722,465.587 600,457.956 600,450C600,444.26 600,320 600,320" style="fill:none;stroke:white;stroke-width:40.72px;stroke-linecap:round;stroke-linejoin:miter;stroke-miterlimit:3;"/>
                    <path d="M600,230L600,200M600,320L600,290" style="fill:none;stroke:white;stroke-width:40.72px;stroke-miterlimit:3;"/>
                    <path d="M662.222,340L703.709,340C726.616,340 745.185,322.094 745.185,300.005C745.185,300.003 745.185,300.002 745.185,300C745.185,277.909 726.613,260 703.704,260C703.704,260 454.815,260 454.815,260L496.296,300M496.296,400L485.926,400C477.675,400 469.762,396.839 463.927,391.213C458.093,385.587 454.815,377.956 454.815,370C454.815,370 454.815,370 454.815,370C454.815,362.043 458.093,354.413 463.927,348.787C469.762,343.161 477.675,340 485.926,340C491.878,340 537.778,340 537.778,340" style="fill:none;stroke:white;stroke-width:40.72px;stroke-linecap:round;stroke-linejoin:miter;stroke-miterlimit:3;"/>
                    <path d="M631.111,340L662.222,340M537.778,340L568.889,340" style="fill:none;stroke:white;stroke-width:40.72px;stroke-miterlimit:3;"/>
                </g>
            </g>
            <g id="Flower" transform="matrix(1.38889,0,0,0.833333,-108.333,44.1667)">
                <g transform="matrix(7.34788e-17,1,-1.2,6.12323e-17,528,20)">
                    <path d="M380,60C380,60 382.862,56.184 385.358,52.856C387.611,49.852 388.088,45.872 386.609,42.42C383.942,36.199 380,27 380,27C380,27 376.058,36.199 373.391,42.42C371.912,45.872 372.389,49.852 374.642,52.856C377.138,56.184 380,60 380,60Z" style="fill:white;"/>
                </g>
                <g transform="matrix(1.2,2.09541e-31,2.95823e-31,1,6.93845e-12,340)">
                    <path d="M380,60C380,60 382.862,56.184 385.358,52.856C387.611,49.852 388.088,45.872 386.609,42.42C383.942,36.199 380,27 380,27C380,27 376.058,36.199 373.391,42.42C371.912,45.872 372.389,49.852 374.642,52.856C377.138,56.184 380,60 380,60Z" style="fill:white;"/>
                </g>
                <g transform="matrix(-1.2,1.22465e-16,-1.46958e-16,-1,912,460)">
                    <path d="M380,60C380,60 382.862,56.184 385.358,52.856C387.611,49.852 388.088,45.872 386.609,42.42C383.942,36.199 380,27 380,27C380,27 376.058,36.199 373.391,42.42C371.912,45.872 372.389,49.852 374.642,52.856C377.138,56.184 380,60 380,60Z" style="fill:white;"/>
                </g>
                <g transform="matrix(7.34788e-17,-1,1.2,6.12323e-17,384,780)">
                    <path d="M380,60C380,60 382.862,56.184 385.358,52.856C387.611,49.852 388.088,45.872 386.609,42.42C383.942,36.199 380,27 380,27C380,27 376.058,36.199 373.391,42.42C371.912,45.872 372.389,49.852 374.642,52.856C377.138,56.184 380,60 380,60Z" style="fill:white;"/>
                </g>
            </g>
        </g>
    </g>
</svg>
