<svg viewBox="0 0 150 150" xmlns="http://www.w3.org/2000/svg" xml:space="preserve" style="fill-rule:evenodd;clip-rule:evenodd;stroke-linejoin:round;stroke-miterlimit:2"><path style="fill:none" d="M0 0h150v150H0z"/><path d="m125 110.042-6.415-6.42a2 2 0 0 1-.585-1.414V50a43.001 43.001 0 0 0-73.406-30.406A43.001 43.001 0 0 0 32 50v52.172a2 2 0 0 1-.586 1.414L25 110V50C25 22.386 47.386 0 75 0a49.997 49.997 0 0 1 50 50v60.042zM125 130l-6.414-6.414a2 2 0 0 1-.586-1.414v-4.344c0-.809.487-1.538 1.235-1.847a1.998 1.998 0 0 1 2.179.433L125 120v10zm-6.414 13.586a2 2 0 0 1-.586-1.414v-4.347c0-.809.487-1.538 1.235-1.847a1.998 1.998 0 0 1 2.179.433l3.586 3.586V150l-6.414-6.414zm-76.172-11A1.999 1.999 0 0 1 39 131.172v-4.346a2 2 0 0 1 .586-1.414L75 90l35.414 35.412a2 2 0 0 1 .586 1.414v4.346a1.999 1.999 0 0 1-3.414 1.414L75 100l-32.586 32.586zM25 139.997l3.586-3.586a1.998 1.998 0 0 1 2.179-.433A1.998 1.998 0 0 1 32 137.825v4.347a2 2 0 0 1-.586 1.414L25 150v-10.003zm0-19.989 3.586-3.586A2 2 0 0 1 32 117.836v4.336a2 2 0 0 1-.586 1.414L25 130v-9.992zm86-28.809a2 2 0 0 1-3.415 1.413L75 60 42.414 92.586A1.999 1.999 0 0 1 39 91.172V50a36 36 0 1 1 72 0v41.199zM75 37l3.464 2.598a5.09 5.09 0 0 0 5.06.606L91 37l-7.476-3.204a5.09 5.09 0 0 0-5.06.606L75 37zm0 0-2.598 3.464a5.09 5.09 0 0 0-.606 5.06L75 53l3.204-7.476a5.09 5.09 0 0 0-.606-5.06L75 37zm0 0 2.598-3.464a5.09 5.09 0 0 0 .606-5.06L75 21l-3.204 7.476a5.09 5.09 0 0 0 .606 5.06L75 37zm0 0-3.464-2.598a5.09 5.09 0 0 0-5.06-.606L59 37l7.476 3.204a5.09 5.09 0 0 0 5.06-.606L75 37zm36 74.172a1.999 1.999 0 0 1-3.414 1.414L75 80l-32.586 32.586A1.999 1.999 0 0 1 39 111.172v-4.338a2 2 0 0 1 .586-1.414L75 70l35.414 35.414a2 2 0 0 1 .586 1.414v4.344z" style="fill:#000"/></svg>