<svg viewBox="0 0 300 300" xmlns="http://www.w3.org/2000/svg" xml:space="preserve" style="fill-rule:evenodd;clip-rule:evenodd;stroke-linejoin:round;stroke-miterlimit:2"><path style="fill:none" d="M0 0h300v300H0z"/><path d="m200 185.042-6.415-6.42a2 2 0 0 1-.585-1.414V125a43.001 43.001 0 0 0-73.406-30.406A43.001 43.001 0 0 0 107 125v52.172a2 2 0 0 1-.586 1.414L100 185v-60c0-27.614 22.386-50 50-50a49.997 49.997 0 0 1 50 50v60.042zM200 205l-6.414-6.414a2 2 0 0 1-.586-1.414v-4.344c0-.809.487-1.538 1.235-1.847a1.998 1.998 0 0 1 2.179.433L200 195v10zm-6.414 13.586a2 2 0 0 1-.586-1.414v-4.347c0-.809.487-1.538 1.235-1.847a1.998 1.998 0 0 1 2.179.433l3.586 3.586V225l-6.414-6.414zm-76.172-11a1.999 1.999 0 0 1-3.414-1.414v-4.346a2 2 0 0 1 .586-1.414L150 165l35.414 35.412a2 2 0 0 1 .586 1.414v4.346a1.999 1.999 0 0 1-3.414 1.414L150 175l-32.586 32.586zM100 214.997l3.586-3.586a1.998 1.998 0 0 1 2.179-.433 1.998 1.998 0 0 1 1.235 1.847v4.347a2 2 0 0 1-.586 1.414L100 225v-10.003zm0-19.989 3.586-3.586a2 2 0 0 1 3.414 1.414v4.336a2 2 0 0 1-.586 1.414L100 205v-9.992zm86-28.809a2 2 0 0 1-3.415 1.413L150 135l-32.586 32.586a1.999 1.999 0 0 1-3.414-1.414V125a36 36 0 1 1 72 0v41.199zM150 112l2.598-3.464a5.09 5.09 0 0 0 .606-5.06L150 96l-3.204 7.476a5.09 5.09 0 0 0 .606 5.06L150 112zm0 0-3.464-2.598a5.09 5.09 0 0 0-5.06-.606L134 112l7.476 3.204a5.09 5.09 0 0 0 5.06-.606L150 112zm0 0 3.464 2.598a5.09 5.09 0 0 0 5.06.606L166 112l-7.476-3.204a5.09 5.09 0 0 0-5.06.606L150 112zm0 0-2.598 3.464a5.09 5.09 0 0 0-.606 5.06L150 128l3.204-7.476a5.09 5.09 0 0 0-.606-5.06L150 112zm36 74.172a1.999 1.999 0 0 1-3.414 1.414L150 155l-32.586 32.586a1.999 1.999 0 0 1-3.414-1.414v-4.338a2 2 0 0 1 .586-1.414L150 145l35.414 35.414a2 2 0 0 1 .586 1.414v4.344z" style="fill:#fff"/></svg>