<svg viewBox="0 0 300 300" xmlns="http://www.w3.org/2000/svg" xml:space="preserve" style="fill-rule:evenodd;clip-rule:evenodd;stroke-linejoin:round;stroke-miterlimit:2"><path style="fill:none" d="M0 0h300v300H0z"/><path d="M.08-.306A.16.16 0 0 1 .102-.39a.159.159 0 0 1 .142-.083.16.16 0 0 1 .084.023.172.172 0 0 1 .06.06.16.16 0 0 1 .022.084.157.157 0 0 1-.023.083.162.162 0 0 1-.143.081.155.155 0 0 1-.082-.022.162.162 0 0 1-.082-.142z" style="fill:#fff;fill-rule:nonzero" transform="rotate(23.188 9.125 492.864) scale(15.2778)"/><path d="m.242-.474-.004.037.022-.028.24-.271h.188l-.304.33L.689 0H.505L.278-.314l-.036.036V0H.095v-.736h.147v.262z" style="fill:#fff;fill-rule:nonzero" transform="rotate(30.846 27.645 397.297) scale(15.2778)"/><path d="m.012 0 .332-.765h.008L.684 0H.516L.304-.538.409-.61.155 0H.012zm.227-.266H.46l.051.122H.194l.045-.122z" style="fill:#fff;fill-rule:nonzero" transform="rotate(35.846 34.76 359.786) scale(15.2778)"/><path style="fill:#fff;fill-rule:nonzero" d="M.095-.736H.24V0H.095z" transform="scale(15.2778) rotate(39.927 2.495 22.186)"/><path d="M.045-.736h.496v.14H.362V0H.217v-.596H.045v-.14z" style="fill:#fff;fill-rule:nonzero" transform="rotate(43.645 42.642 317.657) scale(15.2778)"/><path d="m.012 0 .332-.765h.008L.684 0H.516L.304-.538.409-.61.155 0H.012zm.227-.266H.46l.051.122H.194l.045-.122z" style="fill:#fff;fill-rule:nonzero" transform="rotate(48.116 46.638 297.964) scale(15.27781)"/><path d="M.692-.074a.145.145 0 0 1-.041.028.398.398 0 0 1-.065.027.894.894 0 0 1-.074.02.459.459 0 0 1-.234-.02.346.346 0 0 1-.123-.074.314.314 0 0 1-.078-.112.464.464 0 0 1 .003-.317.346.346 0 0 1 .204-.198.527.527 0 0 1 .274-.009.474.474 0 0 1 .1.039l-.047.135a.61.61 0 0 0-.109-.037.343.343 0 0 0-.161.009.2.2 0 0 0-.078.045.208.208 0 0 0-.047.074.303.303 0 0 0 .002.197.203.203 0 0 0 .128.115.3.3 0 0 0 .155.01.134.134 0 0 0 .044-.014v-.089H.418v-.14h.274v.311z" style="fill:#fff;fill-rule:nonzero" transform="rotate(53.271 50.209 279.84) scale(15.2778)"/><path d="M.488-.558a.582.582 0 0 0-.085-.038.255.255 0 0 0-.082-.015.125.125 0 0 0-.074.019.066.066 0 0 0-.027.057c0 .017.007.033.021.047a.204.204 0 0 0 .053.036c.021.011.044.02.067.029a.603.603 0 0 1 .064.029.224.224 0 0 1 .056.041c.017.016.03.036.04.061a.233.233 0 0 1-.014.193.215.215 0 0 1-.085.078.3.3 0 0 1-.138.029.498.498 0 0 1-.171-.034.462.462 0 0 1-.081-.045l.064-.113a.318.318 0 0 0 .175.064.198.198 0 0 0 .053-.007.103.103 0 0 0 .044-.026.072.072 0 0 0 .017-.05.065.065 0 0 0-.014-.04.162.162 0 0 0-.039-.033.336.336 0 0 0-.054-.026 1.338 1.338 0 0 1-.07-.03.354.354 0 0 1-.067-.041.2.2 0 0 1-.051-.061.193.193 0 0 1-.02-.09c0-.043.01-.08.029-.111a.207.207 0 0 1 .08-.075.287.287 0 0 1 .12-.03.42.42 0 0 1 .244.071l-.055.111z" style="fill:#fff;fill-rule:nonzero" transform="rotate(61.145 53.688 259.297) scale(15.27781)"/><path d="M.045-.736h.496v.14H.362V0H.217v-.596H.045v-.14z" style="fill:#fff;fill-rule:nonzero" transform="scale(15.2778) rotate(65.613 3.643 16.298)"/><path d="M.225-.272a.12.12 0 0 0 .021.067.157.157 0 0 0 .131.072.16.16 0 0 0 .08-.02.153.153 0 0 0 .055-.052.12.12 0 0 0 .021-.067v-.464h.143v.467a.254.254 0 0 1-.04.143.276.276 0 0 1-.108.098.318.318 0 0 1-.151.036.317.317 0 0 1-.15-.036.273.273 0 0 1-.107-.098.254.254 0 0 1-.04-.143v-.467h.145v.464z" style="fill:#fff;fill-rule:nonzero" transform="scale(15.2778) rotate(70.621 3.81 15.577)"/><path d="M.095 0v-.736h.22c.074 0 .137.011.189.033a.336.336 0 0 1 .195.211.432.432 0 0 1 .022.137.345.345 0 0 1-.228.33A.397.397 0 0 1 .351 0H.095zM.24-.14h.086c.037 0 .07-.005.1-.015a.21.21 0 0 0 .078-.042.18.18 0 0 0 .049-.071.243.243 0 0 0 .018-.097.248.248 0 0 0-.024-.117.18.18 0 0 0-.058-.071.219.219 0 0 0-.131-.044H.24v.457z" style="fill:#fff;fill-rule:nonzero" transform="rotate(76.362 60.368 227.624) scale(15.27781)"/><path style="fill:#fff;fill-rule:nonzero" d="M.095-.736H.24V0H.095z" transform="rotate(80.502 59.795 223.291) scale(15.27781)"/><path d="M.095-.736h.502v.14H.24v.157h.316v.14H.24v.159h.371V0H.095v-.736z" style="fill:#fff;fill-rule:nonzero" transform="scale(15.2778) rotate(84.598 4.083 14.116)"/><path d="M.488-.558a.582.582 0 0 0-.085-.038.255.255 0 0 0-.082-.015.125.125 0 0 0-.074.019.066.066 0 0 0-.027.057c0 .017.007.033.021.047a.204.204 0 0 0 .053.036c.021.011.044.02.067.029a.603.603 0 0 1 .064.029.224.224 0 0 1 .056.041c.017.016.03.036.04.061a.233.233 0 0 1-.014.193.215.215 0 0 1-.085.078.3.3 0 0 1-.138.029.498.498 0 0 1-.171-.034.462.462 0 0 1-.081-.045l.064-.113a.318.318 0 0 0 .175.064.198.198 0 0 0 .053-.007.103.103 0 0 0 .044-.026.072.072 0 0 0 .017-.05.065.065 0 0 0-.014-.04.162.162 0 0 0-.039-.033.336.336 0 0 0-.054-.026 1.338 1.338 0 0 1-.07-.03.354.354 0 0 1-.067-.041.2.2 0 0 1-.051-.061.193.193 0 0 1-.02-.09c0-.043.01-.08.029-.111a.207.207 0 0 1 .08-.075.287.287 0 0 1 .12-.03.42.42 0 0 1 .244.071l-.055.111z" style="fill:#fff;fill-rule:nonzero" transform="scale(15.2778) rotate(89.214 4.13 13.743)"/><path d="M.08-.306A.16.16 0 0 1 .102-.39a.159.159 0 0 1 .142-.083.16.16 0 0 1 .084.023.172.172 0 0 1 .06.06.16.16 0 0 1 .022.084.157.157 0 0 1-.023.083.162.162 0 0 1-.143.081.155.155 0 0 1-.082-.022.162.162 0 0 1-.082-.142z" style="fill:#fff;fill-rule:nonzero" transform="scale(-15.2778) rotate(-83.688 -14.734 4.714)"/><path d="M.225-.272a.12.12 0 0 0 .021.067.157.157 0 0 0 .131.072.16.16 0 0 0 .08-.02.153.153 0 0 0 .055-.052.12.12 0 0 0 .021-.067v-.464h.143v.467a.254.254 0 0 1-.04.143.276.276 0 0 1-.108.098.318.318 0 0 1-.151.036.317.317 0 0 1-.15-.036.273.273 0 0 1-.107-.098.254.254 0 0 1-.04-.143v-.467h.145v.464z" style="fill:#fff;fill-rule:nonzero" transform="rotate(103.885 67.084 192.52) scale(15.2778)"/><path d="M.318-.736a.42.42 0 0 1 .123.017.26.26 0 0 1 .09.05.216.216 0 0 1 .056.078.263.263 0 0 1 .019.103c0 .03-.005.06-.014.09a.226.226 0 0 1-.044.082.212.212 0 0 1-.08.059.302.302 0 0 1-.124.023H.24V0H.095v-.736h.223zm.025.362c.022 0 .04-.004.055-.011a.087.087 0 0 0 .034-.028.09.09 0 0 0 .018-.035.117.117 0 0 0 .006-.035.124.124 0 0 0-.004-.03.117.117 0 0 0-.014-.038.088.088 0 0 0-.034-.032.116.116 0 0 0-.06-.013H.24v.222h.103zm.136.09L.661 0H.492L.306-.28l.173-.004z" style="fill:#fff;fill-rule:nonzero" transform="rotate(109.387 68.04 187.19) scale(15.27781)"/><path d="M.488-.558a.582.582 0 0 0-.085-.038.255.255 0 0 0-.082-.015.125.125 0 0 0-.074.019.066.066 0 0 0-.027.057c0 .017.007.033.021.047a.204.204 0 0 0 .053.036c.021.011.044.02.067.029a.603.603 0 0 1 .064.029.224.224 0 0 1 .056.041c.017.016.03.036.04.061a.233.233 0 0 1-.014.193.215.215 0 0 1-.085.078.3.3 0 0 1-.138.029.498.498 0 0 1-.171-.034.462.462 0 0 1-.081-.045l.064-.113a.318.318 0 0 0 .175.064.198.198 0 0 0 .053-.007.103.103 0 0 0 .044-.026.072.072 0 0 0 .017-.05.065.065 0 0 0-.014-.04.162.162 0 0 0-.039-.033.336.336 0 0 0-.054-.026 1.338 1.338 0 0 1-.07-.03.354.354 0 0 1-.067-.041.2.2 0 0 1-.051-.061.193.193 0 0 1-.02-.09c0-.043.01-.08.029-.111a.207.207 0 0 1 .08-.075.287.287 0 0 1 .12-.03.42.42 0 0 1 .244.071l-.055.111z" style="fill:#fff;fill-rule:nonzero" transform="scale(-15.2778) rotate(-66.098 -18.463 6.85)"/><path d="M.488-.558a.582.582 0 0 0-.085-.038.255.255 0 0 0-.082-.015.125.125 0 0 0-.074.019.066.066 0 0 0-.027.057c0 .017.007.033.021.047a.204.204 0 0 0 .053.036c.021.011.044.02.067.029a.603.603 0 0 1 .064.029.224.224 0 0 1 .056.041c.017.016.03.036.04.061a.233.233 0 0 1-.014.193.215.215 0 0 1-.085.078.3.3 0 0 1-.138.029.498.498 0 0 1-.171-.034.462.462 0 0 1-.081-.045l.064-.113a.318.318 0 0 0 .175.064.198.198 0 0 0 .053-.007.103.103 0 0 0 .044-.026.072.072 0 0 0 .017-.05.065.065 0 0 0-.014-.04.162.162 0 0 0-.039-.033.336.336 0 0 0-.054-.026 1.338 1.338 0 0 1-.07-.03.354.354 0 0 1-.067-.041.2.2 0 0 1-.051-.061.193.193 0 0 1-.02-.09c0-.043.01-.08.029-.111a.207.207 0 0 1 .08-.075.287.287 0 0 1 .12-.03.42.42 0 0 1 .244.071l-.055.111z" style="fill:#fff;fill-rule:nonzero" transform="scale(-15.2778) rotate(-61.626 -19.708 7.556)"/><path style="fill:#fff;fill-rule:nonzero" d="M.095-.736H.24V0H.095z" transform="rotate(122.112 68.57 176.913) scale(15.2778)"/><path d="m.206-.736.215.53-.084-.017.195-.513h.172l-.336.77-.336-.77h.174z" style="fill:#fff;fill-rule:nonzero" transform="rotate(126.323 70.797 172.647) scale(15.2778)"/><path d="m.012 0 .332-.765h.008L.684 0H.516L.304-.538.409-.61.155 0H.012zm.227-.266H.46l.051.122H.194l.045-.122z" style="fill:#fff;fill-rule:nonzero" transform="rotate(131.038 71.39 169.039) scale(15.27781)"/><path d="M.318-.736a.42.42 0 0 1 .123.017.26.26 0 0 1 .09.05.216.216 0 0 1 .056.078.263.263 0 0 1 .019.103c0 .03-.005.06-.014.09a.226.226 0 0 1-.044.082.212.212 0 0 1-.08.059.302.302 0 0 1-.124.023H.24V0H.095v-.736h.223zm.025.362c.022 0 .04-.004.055-.011a.087.087 0 0 0 .034-.028.09.09 0 0 0 .018-.035.117.117 0 0 0 .006-.035.124.124 0 0 0-.004-.03.117.117 0 0 0-.014-.038.088.088 0 0 0-.034-.032.116.116 0 0 0-.06-.013H.24v.222h.103zm.136.09L.661 0H.492L.306-.28l.173-.004z" style="fill:#fff;fill-rule:nonzero" transform="scale(-15.2778) rotate(-43.555 -27.015 11.865)"/><path d="M.08-.306A.16.16 0 0 1 .102-.39a.159.159 0 0 1 .142-.083.16.16 0 0 1 .084.023.172.172 0 0 1 .06.06.16.16 0 0 1 .022.084.157.157 0 0 1-.023.083.162.162 0 0 1-.143.081.155.155 0 0 1-.082-.022.162.162 0 0 1-.082-.142z" style="fill:#fff;fill-rule:nonzero" transform="rotate(143.561 72.375 160.151) scale(15.2778)"/><path d="m.242-.474-.004.037.022-.028.24-.271h.188l-.304.33L.689 0H.505L.278-.314l-.036.036V0H.095v-.736h.147v.262z" style="fill:#fff;fill-rule:nonzero" transform="scale(-15.2778) rotate(-28.844 -39.351 18.947)"/><path d="m.012 0 .332-.765h.008L.684 0H.516L.304-.538.409-.61.155 0H.012zm.227-.266H.46l.051.122H.194l.045-.122z" style="fill:#fff;fill-rule:nonzero" transform="scale(-15.2778) rotate(-23.907 -46.815 23.094)"/><path style="fill:#fff;fill-rule:nonzero" d="M.095-.736H.24V0H.095z" transform="rotate(160.108 73.79 149.037) scale(15.2778)"/><path d="M.045-.736h.496v.14H.362V0H.217v-.596H.045v-.14z" style="fill:#fff;fill-rule:nonzero" transform="scale(-15.2778) rotate(-16.218 -67.29 34.537)"/><path d="m.012 0 .332-.765h.008L.684 0H.516L.304-.538.409-.61.155 0H.012zm.227-.266H.46l.051.122H.194l.045-.122z" style="fill:#fff;fill-rule:nonzero" transform="scale(-15.2778) rotate(-11.761 -91.243 48.39)"/><path d="M.692-.074a.145.145 0 0 1-.041.028.398.398 0 0 1-.065.027.894.894 0 0 1-.074.02.459.459 0 0 1-.234-.02.346.346 0 0 1-.123-.074.314.314 0 0 1-.078-.112.464.464 0 0 1 .003-.317.346.346 0 0 1 .204-.198.527.527 0 0 1 .274-.009.474.474 0 0 1 .1.039l-.047.135a.61.61 0 0 0-.109-.037.343.343 0 0 0-.161.009.2.2 0 0 0-.078.045.208.208 0 0 0-.047.074.303.303 0 0 0 .002.197.203.203 0 0 0 .128.115.3.3 0 0 0 .155.01.134.134 0 0 0 .044-.014v-.089H.418v-.14h.274v.311z" style="fill:#fff;fill-rule:nonzero" transform="rotate(173.396 76.96 140.286) scale(15.2778)"/><path d="M.488-.558a.582.582 0 0 0-.085-.038.255.255 0 0 0-.082-.015.125.125 0 0 0-.074.019.066.066 0 0 0-.027.057c0 .017.007.033.021.047a.204.204 0 0 0 .053.036c.021.011.044.02.067.029a.603.603 0 0 1 .064.029.224.224 0 0 1 .056.041c.017.016.03.036.04.061a.233.233 0 0 1-.014.193.215.215 0 0 1-.085.078.3.3 0 0 1-.138.029.498.498 0 0 1-.171-.034.462.462 0 0 1-.081-.045l.064-.113a.318.318 0 0 0 .175.064.198.198 0 0 0 .053-.007.103.103 0 0 0 .044-.026.072.072 0 0 0 .017-.05.065.065 0 0 0-.014-.04.162.162 0 0 0-.039-.033.336.336 0 0 0-.054-.026 1.338 1.338 0 0 1-.07-.03.354.354 0 0 1-.067-.041.2.2 0 0 1-.051-.061.193.193 0 0 1-.02-.09c0-.043.01-.08.029-.111a.207.207 0 0 1 .08-.075.287.287 0 0 1 .12-.03.42.42 0 0 1 .244.071l-.055.111z" style="fill:#fff;fill-rule:nonzero" transform="scale(-15.2778) rotate(1.373 738.791 -422.541)"/><path d="M.045-.736h.496v.14H.362V0H.217v-.596H.045v-.14z" style="fill:#fff;fill-rule:nonzero" transform="scale(-15.2778) rotate(5.92 167.538 -98.721)"/><path d="M.225-.272a.12.12 0 0 0 .021.067.157.157 0 0 0 .131.072.16.16 0 0 0 .08-.02.153.153 0 0 0 .055-.052.12.12 0 0 0 .021-.067v-.464h.143v.467a.254.254 0 0 1-.04.143.276.276 0 0 1-.108.098.318.318 0 0 1-.151.036.317.317 0 0 1-.15-.036.273.273 0 0 1-.107-.098.254.254 0 0 1-.04-.143v-.467h.145v.464z" style="fill:#fff;fill-rule:nonzero" transform="rotate(-169.02 79.292 129.194) scale(15.2778)"/><path d="M.095 0v-.736h.22c.074 0 .137.011.189.033a.336.336 0 0 1 .195.211.432.432 0 0 1 .022.137.345.345 0 0 1-.228.33A.397.397 0 0 1 .351 0H.095zM.24-.14h.086c.037 0 .07-.005.1-.015a.21.21 0 0 0 .078-.042.18.18 0 0 0 .049-.071.243.243 0 0 0 .018-.097.248.248 0 0 0-.024-.117.18.18 0 0 0-.058-.071.219.219 0 0 0-.131-.044H.24v.457z" style="fill:#fff;fill-rule:nonzero" transform="rotate(-163.281 80.198 125.555) scale(15.2778)"/><path style="fill:#fff;fill-rule:nonzero" d="M.095-.736H.24V0H.095z" transform="scale(-15.2778) rotate(20.795 43.726 -28.106)"/><path d="M.095-.736h.502v.14H.24v.157h.316v.14H.24v.159h.371V0H.095v-.736z" style="fill:#fff;fill-rule:nonzero" transform="rotate(-155.159 80.684 120.176) scale(15.2778)"/><path d="M.488-.558a.582.582 0 0 0-.085-.038.255.255 0 0 0-.082-.015.125.125 0 0 0-.074.019.066.066 0 0 0-.027.057c0 .017.007.033.021.047a.204.204 0 0 0 .053.036c.021.011.044.02.067.029a.603.603 0 0 1 .064.029.224.224 0 0 1 .056.041c.017.016.03.036.04.061a.233.233 0 0 1-.014.193.215.215 0 0 1-.085.078.3.3 0 0 1-.138.029.498.498 0 0 1-.171-.034.462.462 0 0 1-.081-.045l.064-.113a.318.318 0 0 0 .175.064.198.198 0 0 0 .053-.007.103.103 0 0 0 .044-.026.072.072 0 0 0 .017-.05.065.065 0 0 0-.014-.04.162.162 0 0 0-.039-.033.336.336 0 0 0-.054-.026 1.338 1.338 0 0 1-.07-.03.354.354 0 0 1-.067-.041.2.2 0 0 1-.051-.061.193.193 0 0 1-.02-.09c0-.043.01-.08.029-.111a.207.207 0 0 1 .08-.075.287.287 0 0 1 .12-.03.42.42 0 0 1 .244.071l-.055.111z" style="fill:#fff;fill-rule:nonzero" transform="scale(-15.2778) rotate(29.442 29.142 -20.125)"/><path d="M.08-.306A.16.16 0 0 1 .102-.39a.159.159 0 0 1 .142-.083.16.16 0 0 1 .084.023.172.172 0 0 1 .06.06.16.16 0 0 1 .022.084.157.157 0 0 1-.023.083.162.162 0 0 1-.143.081.155.155 0 0 1-.082-.022.162.162 0 0 1-.082-.142z" style="fill:#fff;fill-rule:nonzero" transform="rotate(-143.466 81.46 111.99) scale(15.27781)"/><path d="M.225-.272a.12.12 0 0 0 .021.067.157.157 0 0 0 .131.072.16.16 0 0 0 .08-.02.153.153 0 0 0 .055-.052.12.12 0 0 0 .021-.067v-.464h.143v.467a.254.254 0 0 1-.04.143.276.276 0 0 1-.108.098.318.318 0 0 1-.151.036.317.317 0 0 1-.15-.036.273.273 0 0 1-.107-.098.254.254 0 0 1-.04-.143v-.467h.145v.464z" style="fill:#fff;fill-rule:nonzero" transform="rotate(-135.863 83.587 106.912) scale(15.27781)"/><path d="M.318-.736a.42.42 0 0 1 .123.017.26.26 0 0 1 .09.05.216.216 0 0 1 .056.078.263.263 0 0 1 .019.103c0 .03-.005.06-.014.09a.226.226 0 0 1-.044.082.212.212 0 0 1-.08.059.302.302 0 0 1-.124.023H.24V0H.095v-.736h.223zm.025.362c.022 0 .04-.004.055-.011a.087.087 0 0 0 .034-.028.09.09 0 0 0 .018-.035.117.117 0 0 0 .006-.035.124.124 0 0 0-.004-.03.117.117 0 0 0-.014-.038.088.088 0 0 0-.034-.032.116.116 0 0 0-.06-.013H.24v.222h.103zm.136.09L.661 0H.492L.306-.28l.173-.004z" style="fill:#fff;fill-rule:nonzero" transform="scale(-15.2778) rotate(49.727 14.51 -11.922)"/><path d="M.488-.558a.582.582 0 0 0-.085-.038.255.255 0 0 0-.082-.015.125.125 0 0 0-.074.019.066.066 0 0 0-.027.057c0 .017.007.033.021.047a.204.204 0 0 0 .053.036c.021.011.044.02.067.029a.603.603 0 0 1 .064.029.224.224 0 0 1 .056.041c.017.016.03.036.04.061a.233.233 0 0 1-.014.193.215.215 0 0 1-.085.078.3.3 0 0 1-.138.029.498.498 0 0 1-.171-.034.462.462 0 0 1-.081-.045l.064-.113a.318.318 0 0 0 .175.064.198.198 0 0 0 .053-.007.103.103 0 0 0 .044-.026.072.072 0 0 0 .017-.05.065.065 0 0 0-.014-.04.162.162 0 0 0-.039-.033.336.336 0 0 0-.054-.026 1.338 1.338 0 0 1-.07-.03.354.354 0 0 1-.067-.041.2.2 0 0 1-.051-.061.193.193 0 0 1-.02-.09c0-.043.01-.08.029-.111a.207.207 0 0 1 .08-.075.287.287 0 0 1 .12-.03.42.42 0 0 1 .244.071l-.055.111z" style="fill:#fff;fill-rule:nonzero" transform="rotate(-125.731 84.391 98.83) scale(15.2778)"/><path d="M.488-.558a.582.582 0 0 0-.085-.038.255.255 0 0 0-.082-.015.125.125 0 0 0-.074.019.066.066 0 0 0-.027.057c0 .017.007.033.021.047a.204.204 0 0 0 .053.036c.021.011.044.02.067.029a.603.603 0 0 1 .064.029.224.224 0 0 1 .056.041c.017.016.03.036.04.061a.233.233 0 0 1-.014.193.215.215 0 0 1-.085.078.3.3 0 0 1-.138.029.498.498 0 0 1-.171-.034.462.462 0 0 1-.081-.045l.064-.113a.318.318 0 0 0 .175.064.198.198 0 0 0 .053-.007.103.103 0 0 0 .044-.026.072.072 0 0 0 .017-.05.065.065 0 0 0-.014-.04.162.162 0 0 0-.039-.033.336.336 0 0 0-.054-.026 1.338 1.338 0 0 1-.07-.03.354.354 0 0 1-.067-.041.2.2 0 0 1-.051-.061.193.193 0 0 1-.02-.09c0-.043.01-.08.029-.111a.207.207 0 0 1 .08-.075.287.287 0 0 1 .12-.03.42.42 0 0 1 .244.071l-.055.111z" style="fill:#fff;fill-rule:nonzero" transform="scale(-15.2778) rotate(58.722 11.073 -9.897)"/><path style="fill:#fff;fill-rule:nonzero" d="M.095-.736H.24V0H.095z" transform="scale(-15.2778) rotate(62.404 9.884 -9.155)"/><path d="m.206-.736.215.53-.084-.017.195-.513h.172l-.336.77-.336-.77h.174z" style="fill:#fff;fill-rule:nonzero" transform="scale(-15.2778) rotate(66.552 8.847 -8.668)"/><path d="m.012 0 .332-.765h.008L.684 0H.516L.304-.538.409-.61.155 0H.012zm.227-.266H.46l.051.122H.194l.045-.122z" style="fill:#fff;fill-rule:nonzero" transform="scale(-15.2778) rotate(71.199 7.704 -8.004)"/><path d="M.318-.736a.42.42 0 0 1 .123.017.26.26 0 0 1 .09.05.216.216 0 0 1 .056.078.263.263 0 0 1 .019.103c0 .03-.005.06-.014.09a.226.226 0 0 1-.044.082.212.212 0 0 1-.08.059.302.302 0 0 1-.124.023H.24V0H.095v-.736h.223zm.025.362c.022 0 .04-.004.055-.011a.087.087 0 0 0 .034-.028.09.09 0 0 0 .018-.035.117.117 0 0 0 .006-.035.124.124 0 0 0-.004-.03.117.117 0 0 0-.014-.038.088.088 0 0 0-.034-.032.116.116 0 0 0-.06-.013H.24v.222h.103zm.136.09L.661 0H.492L.306-.28l.173-.004z" style="fill:#fff;fill-rule:nonzero" transform="rotate(-103.433 88.767 79.125) scale(15.27781)"/><path d="M.08-.306A.16.16 0 0 1 .102-.39a.159.159 0 0 1 .142-.083.16.16 0 0 1 .084.023.172.172 0 0 1 .06.06.16.16 0 0 1 .022.084.157.157 0 0 1-.023.083.162.162 0 0 1-.143.081.155.155 0 0 1-.082-.022.162.162 0 0 1-.082-.142z" style="fill:#fff;fill-rule:nonzero" transform="scale(-15.2778) rotate(83.702 5.156 -6.52)"/><path d="m.242-.474-.004.037.022-.028.24-.271h.188l-.304.33L.689 0H.505L.278-.314l-.036.036V0H.095v-.736h.147v.262z" style="fill:#fff;fill-rule:nonzero" transform="rotate(-88.616 92.202 62.352) scale(15.2778)"/><path d="m.012 0 .332-.765h.008L.684 0H.516L.304-.538.409-.61.155 0H.012zm.227-.266H.46l.051.122H.194l.045-.122z" style="fill:#fff;fill-rule:nonzero" transform="rotate(-83.609 93.219 55.274) scale(15.2778)"/><path style="fill:#fff;fill-rule:nonzero" d="M.095-.736H.24V0H.095z" transform="scale(15.2778) rotate(-79.539 6.089 3.117)"/><path d="M.045-.736h.496v.14H.362V0H.217v-.596H.045v-.14z" style="fill:#fff;fill-rule:nonzero" transform="scale(15.2778) rotate(-75.843 6.226 2.802)"/><path d="m.012 0 .332-.765h.008L.684 0H.516L.304-.538.409-.61.155 0H.012zm.227-.266H.46l.051.122H.194l.045-.122z" style="fill:#fff;fill-rule:nonzero" transform="scale(15.2778) rotate(-71.43 6.348 2.324)"/><path d="M.692-.074a.145.145 0 0 1-.041.028.398.398 0 0 1-.065.027.894.894 0 0 1-.074.02.459.459 0 0 1-.234-.02.346.346 0 0 1-.123-.074.314.314 0 0 1-.078-.112.464.464 0 0 1 .003-.317.346.346 0 0 1 .204-.198.527.527 0 0 1 .274-.009.474.474 0 0 1 .1.039l-.047.135a.61.61 0 0 0-.109-.037.343.343 0 0 0-.161.009.2.2 0 0 0-.078.045.208.208 0 0 0-.047.074.303.303 0 0 0 .002.197.203.203 0 0 0 .128.115.3.3 0 0 0 .155.01.134.134 0 0 0 .044-.014v-.089H.418v-.14h.274v.311z" style="fill:#fff;fill-rule:nonzero" transform="rotate(-66.347 99.008 25.623) scale(15.27781)"/><path d="M.488-.558a.582.582 0 0 0-.085-.038.255.255 0 0 0-.082-.015.125.125 0 0 0-.074.019.066.066 0 0 0-.027.057c0 .017.007.033.021.047a.204.204 0 0 0 .053.036c.021.011.044.02.067.029a.603.603 0 0 1 .064.029.224.224 0 0 1 .056.041c.017.016.03.036.04.061a.233.233 0 0 1-.014.193.215.215 0 0 1-.085.078.3.3 0 0 1-.138.029.498.498 0 0 1-.171-.034.462.462 0 0 1-.081-.045l.064-.113a.318.318 0 0 0 .175.064.198.198 0 0 0 .053-.007.103.103 0 0 0 .044-.026.072.072 0 0 0 .017-.05.065.065 0 0 0-.014-.04.162.162 0 0 0-.039-.033.336.336 0 0 0-.054-.026 1.338 1.338 0 0 1-.07-.03.354.354 0 0 1-.067-.041.2.2 0 0 1-.051-.061.193.193 0 0 1-.02-.09c0-.043.01-.08.029-.111a.207.207 0 0 1 .08-.075.287.287 0 0 1 .12-.03.42.42 0 0 1 .244.071l-.055.111z" style="fill:#fff;fill-rule:nonzero" transform="rotate(-58.403 101.984 5.794) scale(15.27781)"/><path d="M.045-.736h.496v.14H.362V0H.217v-.596H.045v-.14z" style="fill:#fff;fill-rule:nonzero" transform="rotate(-53.854 104.561 -7.12) scale(15.2778)"/><path d="M.225-.272a.12.12 0 0 0 .021.067.157.157 0 0 0 .131.072.16.16 0 0 0 .08-.02.153.153 0 0 0 .055-.052.12.12 0 0 0 .021-.067v-.464h.143v.467a.254.254 0 0 1-.04.143.276.276 0 0 1-.108.098.318.318 0 0 1-.151.036.317.317 0 0 1-.15-.036.273.273 0 0 1-.107-.098.254.254 0 0 1-.04-.143v-.467h.145v.464z" style="fill:#fff;fill-rule:nonzero" transform="rotate(-48.787 108.543 -22.784) scale(15.2778)"/><path d="M.095 0v-.736h.22c.074 0 .137.011.189.033a.336.336 0 0 1 .195.211.432.432 0 0 1 .022.137.345.345 0 0 1-.228.33A.397.397 0 0 1 .351 0H.095zM.24-.14h.086c.037 0 .07-.005.1-.015a.21.21 0 0 0 .078-.042.18.18 0 0 0 .049-.071.243.243 0 0 0 .018-.097.248.248 0 0 0-.024-.117.18.18 0 0 0-.058-.071.219.219 0 0 0-.131-.044H.24v.457z" style="fill:#fff;fill-rule:nonzero" transform="rotate(-42.99 113.458 -46.207) scale(15.27781)"/><path style="fill:#fff;fill-rule:nonzero" d="M.095-.736H.24V0H.095z" transform="scale(15.2778) rotate(-38.849 7.577 -4.76)"/><path d="M.095-.736h.502v.14H.24v.157h.316v.14H.24v.159h.371V0H.095v-.736z" style="fill:#fff;fill-rule:nonzero" transform="rotate(-34.787 122.127 -94.489) scale(15.27781)"/><path d="M.488-.558a.582.582 0 0 0-.085-.038.255.255 0 0 0-.082-.015.125.125 0 0 0-.074.019.066.066 0 0 0-.027.057c0 .017.007.033.021.047a.204.204 0 0 0 .053.036c.021.011.044.02.067.029a.603.603 0 0 1 .064.029.224.224 0 0 1 .056.041c.017.016.03.036.04.061a.233.233 0 0 1-.014.193.215.215 0 0 1-.085.078.3.3 0 0 1-.138.029.498.498 0 0 1-.171-.034.462.462 0 0 1-.081-.045l.064-.113a.318.318 0 0 0 .175.064.198.198 0 0 0 .053-.007.103.103 0 0 0 .044-.026.072.072 0 0 0 .017-.05.065.065 0 0 0-.014-.04.162.162 0 0 0-.039-.033.336.336 0 0 0-.054-.026 1.338 1.338 0 0 1-.07-.03.354.354 0 0 1-.067-.041.2.2 0 0 1-.051-.061.193.193 0 0 1-.02-.09c0-.043.01-.08.029-.111a.207.207 0 0 1 .08-.075.287.287 0 0 1 .12-.03.42.42 0 0 1 .244.071l-.055.111z" style="fill:#fff;fill-rule:nonzero" transform="scale(15.2778) rotate(-30.221 8.425 -8.731)"/><path d="M.08-.306A.16.16 0 0 1 .102-.39a.159.159 0 0 1 .142-.083.16.16 0 0 1 .084.023.172.172 0 0 1 .06.06.16.16 0 0 1 .022.084.157.157 0 0 1-.023.083.162.162 0 0 1-.143.081.155.155 0 0 1-.082-.022.162.162 0 0 1-.082-.142z" style="fill:#fff;fill-rule:nonzero" transform="scale(15.27781) rotate(-23.235 9.456 -14.383)"/><path d="M.225-.272a.12.12 0 0 0 .021.067.157.157 0 0 0 .131.072.16.16 0 0 0 .08-.02.153.153 0 0 0 .055-.052.12.12 0 0 0 .021-.067v-.464h.143v.467a.254.254 0 0 1-.04.143.276.276 0 0 1-.108.098.318.318 0 0 1-.151.036.317.317 0 0 1-.15-.036.273.273 0 0 1-.107-.098.254.254 0 0 1-.04-.143v-.467h.145v.464z" style="fill:#fff;fill-rule:nonzero" transform="rotate(-15.735 178.36 -386.305) scale(15.2778)"/><path d="M.318-.736a.42.42 0 0 1 .123.017.26.26 0 0 1 .09.05.216.216 0 0 1 .056.078.263.263 0 0 1 .019.103c0 .03-.005.06-.014.09a.226.226 0 0 1-.044.082.212.212 0 0 1-.08.059.302.302 0 0 1-.124.023H.24V0H.095v-.736h.223zm.025.362c.022 0 .04-.004.055-.011a.087.087 0 0 0 .034-.028.09.09 0 0 0 .018-.035.117.117 0 0 0 .006-.035.124.124 0 0 0-.004-.03.117.117 0 0 0-.014-.038.088.088 0 0 0-.034-.032.116.116 0 0 0-.06-.013H.24v.222h.103zm.136.09L.661 0H.492L.306-.28l.173-.004z" style="fill:#fff;fill-rule:nonzero" transform="rotate(-10.159 234.026 -676.105) scale(15.2778)"/><path d="M.488-.558a.582.582 0 0 0-.085-.038.255.255 0 0 0-.082-.015.125.125 0 0 0-.074.019.066.066 0 0 0-.027.057c0 .017.007.033.021.047a.204.204 0 0 0 .053.036c.021.011.044.02.067.029a.603.603 0 0 1 .064.029.224.224 0 0 1 .056.041c.017.016.03.036.04.061a.233.233 0 0 1-.014.193.215.215 0 0 1-.085.078.3.3 0 0 1-.138.029.498.498 0 0 1-.171-.034.462.462 0 0 1-.081-.045l.064-.113a.318.318 0 0 0 .175.064.198.198 0 0 0 .053-.007.103.103 0 0 0 .044-.026.072.072 0 0 0 .017-.05.065.065 0 0 0-.014-.04.162.162 0 0 0-.039-.033.336.336 0 0 0-.054-.026 1.338 1.338 0 0 1-.07-.03.354.354 0 0 1-.067-.041.2.2 0 0 1-.051-.061.193.193 0 0 1-.02-.09c0-.043.01-.08.029-.111a.207.207 0 0 1 .08-.075.287.287 0 0 1 .12-.03.42.42 0 0 1 .244.071l-.055.111z" style="fill:#fff;fill-rule:nonzero" transform="rotate(-5.588 361.549 -1357.06) scale(15.2778)"/><path d="M.488-.558a.582.582 0 0 0-.085-.038.255.255 0 0 0-.082-.015.125.125 0 0 0-.074.019.066.066 0 0 0-.027.057c0 .017.007.033.021.047a.204.204 0 0 0 .053.036c.021.011.044.02.067.029a.603.603 0 0 1 .064.029.224.224 0 0 1 .056.041c.017.016.03.036.04.061a.233.233 0 0 1-.014.193.215.215 0 0 1-.085.078.3.3 0 0 1-.138.029.498.498 0 0 1-.171-.034.462.462 0 0 1-.081-.045l.064-.113a.318.318 0 0 0 .175.064.198.198 0 0 0 .053-.007.103.103 0 0 0 .044-.026.072.072 0 0 0 .017-.05.065.065 0 0 0-.014-.04.162.162 0 0 0-.039-.033.336.336 0 0 0-.054-.026 1.338 1.338 0 0 1-.07-.03.354.354 0 0 1-.067-.041.2.2 0 0 1-.051-.061.193.193 0 0 1-.02-.09c0-.043.01-.08.029-.111a.207.207 0 0 1 .08-.075.287.287 0 0 1 .12-.03.42.42 0 0 1 .244.071l-.055.111z" style="fill:#fff;fill-rule:nonzero" transform="rotate(-1.084 1544.305 -7564.855) scale(15.2778)"/><path style="fill:#fff;fill-rule:nonzero" d="M.095-.736H.24V0H.095z" transform="rotate(2.651 -523.455 3322.32) scale(15.27781)"/><path d="m.206-.736.215.53-.084-.017.195-.513h.172l-.336.77-.336-.77h.174z" style="fill:#fff;fill-rule:nonzero" transform="rotate(6.862 -153.623 1339.48) scale(15.2778)"/><path d="m.012 0 .332-.765h.008L.684 0H.516L.304-.538.409-.61.155 0H.012zm.227-.266H.46l.051.122H.194l.045-.122z" style="fill:#fff;fill-rule:nonzero" transform="scale(15.2778) rotate(11.567 -3.884 55.615)"/><path d="M.318-.736a.42.42 0 0 1 .123.017.26.26 0 0 1 .09.05.216.216 0 0 1 .056.078.263.263 0 0 1 .019.103c0 .03-.005.06-.014.09a.226.226 0 0 1-.044.082.212.212 0 0 1-.08.059.302.302 0 0 1-.124.023H.24V0H.095v-.736h.223zm.025.362c.022 0 .04-.004.055-.011a.087.087 0 0 0 .034-.028.09.09 0 0 0 .018-.035.117.117 0 0 0 .006-.035.124.124 0 0 0-.004-.03.117.117 0 0 0-.014-.038.088.088 0 0 0-.034-.032.116.116 0 0 0-.06-.013H.24v.222h.103zm.136.09L.661 0H.492L.306-.28l.173-.004z" style="fill:#fff;fill-rule:nonzero" transform="rotate(16.924 -15.43 620.588) scale(15.27781)"/></svg>