<?xml version="1.0" encoding="UTF-8" standalone="no"?><!DOCTYPE svg PUBLIC "-//W3C//DTD SVG 1.1//EN" "http://www.w3.org/Graphics/SVG/1.1/DTD/svg11.dtd"><svg width="100%" height="100%" viewBox="0 0 150 150" version="1.1" xmlns="http://www.w3.org/2000/svg" xmlns:xlink="http://www.w3.org/1999/xlink" xml:space="preserve" xmlns:serif="http://www.serif.com/" style="fill-rule:evenodd;clip-rule:evenodd;stroke-linejoin:round;stroke-miterlimit:2;"><rect id="Logo" x="0" y="0" width="150" height="150" style="fill:none;"/><clipPath id="_clip1"><rect x="0" y="0" width="150" height="150"/></clipPath><g clip-path="url(#_clip1)"><path d="M125,110.042l-6.415,-6.42c-0.375,-0.375 -0.585,-0.884 -0.585,-1.414l0,-52.208c0,-11.404 -4.53,-22.342 -12.594,-30.406c-8.064,-8.064 -19.002,-12.594 -30.406,-12.594c-11.404,0 -22.342,4.53 -30.406,12.594c-8.064,8.064 -12.594,19.002 -12.594,30.406l0,52.172c0,0.53 -0.211,1.039 -0.586,1.414l-6.414,6.414l-0,-60c-0,-27.614 22.386,-50 50,-50c13.261,-0 25.979,5.268 35.355,14.645c9.377,9.376 14.645,22.094 14.645,35.355l0,60.042Zm0,19.958l-6.414,-6.414c-0.375,-0.375 -0.586,-0.884 -0.586,-1.414l0,-4.344c0,-0.809 0.487,-1.538 1.235,-1.847c0.747,-0.31 1.607,-0.139 2.179,0.433l3.586,3.586l0,10Zm-6.414,13.586c-0.375,-0.375 -0.586,-0.884 -0.586,-1.414l0,-4.347c0,-0.809 0.487,-1.538 1.235,-1.847c0.747,-0.31 1.607,-0.139 2.179,0.433l3.586,3.586l0,10.003l-6.414,-6.414Zm-76.172,-11c-0.572,0.572 -1.432,0.743 -2.179,0.433c-0.748,-0.309 -1.235,-1.039 -1.235,-1.847l0,-4.346c0,-0.53 0.211,-1.039 0.586,-1.414l35.414,-35.412l35.414,35.412c0.375,0.375 0.586,0.884 0.586,1.414l0,4.346c0,0.808 -0.487,1.538 -1.235,1.847c-0.747,0.31 -1.607,0.139 -2.179,-0.433l-32.586,-32.586l-32.586,32.586Zm-17.414,7.411l3.586,-3.586c0.572,-0.572 1.432,-0.743 2.179,-0.433c0.748,0.309 1.235,1.038 1.235,1.847l0,4.347c-0,0.53 -0.211,1.039 -0.586,1.414l-6.414,6.414l0,-10.003Zm0,-19.989l3.586,-3.586c0.572,-0.572 1.432,-0.743 2.179,-0.434c0.748,0.31 1.235,1.039 1.235,1.848l0,4.336c-0,0.53 -0.211,1.039 -0.586,1.414l-6.414,6.414l0,-9.992Zm86,-28.809c0,0.809 -0.487,1.538 -1.235,1.848c-0.748,0.309 -1.608,0.138 -2.18,-0.435l-32.585,-32.612l-32.586,32.586c-0.572,0.572 -1.432,0.743 -2.179,0.433c-0.748,-0.309 -1.235,-1.039 -1.235,-1.847l0,-41.172c-0,-9.548 3.793,-18.705 10.544,-25.456c6.751,-6.751 15.908,-10.544 25.456,-10.544c9.548,-0 18.705,3.793 25.456,10.544c6.751,6.751 10.544,15.908 10.544,25.456l0,41.199Zm-36,-54.839l2.223,-3.81c1.395,-2.392 1.395,-5.348 -0,-7.74l-2.223,-3.81l-2.223,3.81c-1.395,2.392 -1.395,5.348 0,7.74l2.223,3.81Zm0.64,0.64l3.81,2.223c2.392,1.395 5.348,1.395 7.74,-0l3.81,-2.223l-3.81,-2.223c-2.392,-1.395 -5.348,-1.395 -7.74,0l-3.81,2.223Zm-16.64,0l3.81,2.223c2.392,1.395 5.348,1.395 7.74,-0l3.81,-2.223l-3.81,-2.223c-2.392,-1.395 -5.348,-1.395 -7.74,0l-3.81,2.223Zm16,16l2.223,-3.81c1.395,-2.392 1.395,-5.348 -0,-7.74l-2.223,-3.81l-2.223,3.81c-1.395,2.392 -1.395,5.348 0,7.74l2.223,3.81Zm36,58.172c-0,0.808 -0.487,1.538 -1.235,1.847c-0.747,0.31 -1.607,0.139 -2.179,-0.433l-32.586,-32.586l-32.586,32.586c-0.572,0.572 -1.432,0.743 -2.179,0.433c-0.748,-0.309 -1.235,-1.039 -1.235,-1.847l0,-4.338c0,-0.53 0.211,-1.039 0.586,-1.414l35.414,-35.42l35.414,35.414c0.375,0.375 0.586,0.884 0.586,1.414l0,4.344Z" style="fill:#fff;"/></g></svg>