<?xml version="1.0" encoding="UTF-8" standalone="no"?><!DOCTYPE svg PUBLIC "-//W3C//DTD SVG 1.1//EN" "http://www.w3.org/Graphics/SVG/1.1/DTD/svg11.dtd"><svg width="100%" height="100%" viewBox="0 0 300 300" version="1.1" xmlns="http://www.w3.org/2000/svg" xmlns:xlink="http://www.w3.org/1999/xlink" xml:space="preserve" xmlns:serif="http://www.serif.com/" style="fill-rule:evenodd;clip-rule:evenodd;stroke-linejoin:round;stroke-miterlimit:2;"><rect id="avatar" x="0" y="0" width="300" height="300" style="fill:none;"/><g transform="matrix(0.867484,0.296224,-0.296224,0.867484,64.3109,-24.5562)"><g transform="matrix(0.99714,0.0755762,-0.0755762,0.99714,1.71198,-11.7528)"><g transform="matrix(16.6667,0,0,16.6667,156.143,16.7436)"><path d="M0.08,-0.306c0,-0.031 0.007,-0.059 0.022,-0.084c0.015,-0.025 0.034,-0.045 0.059,-0.061c0.025,-0.015 0.053,-0.022 0.083,-0.022c0.031,0 0.059,0.008 0.084,0.023c0.025,0.015 0.045,0.035 0.06,0.06c0.015,0.025 0.022,0.053 0.022,0.084c-0,0.031 -0.008,0.058 -0.023,0.083c-0.015,0.025 -0.034,0.045 -0.059,0.059c-0.026,0.015 -0.053,0.022 -0.084,0.022c-0.03,-0 -0.057,-0.007 -0.082,-0.022c-0.025,-0.014 -0.045,-0.034 -0.06,-0.059c-0.015,-0.025 -0.022,-0.052 -0.022,-0.083Z" style="fill:#fff;fill-rule:nonzero;"/></g></g><g transform="matrix(0.978176,0.207777,-0.207777,0.978176,7.52577,-35.219)"><g transform="matrix(16.6667,0,0,16.6667,171.417,18.2157)"><path d="M0.242,-0.474l-0.004,0.037l0.022,-0.028l0.24,-0.271l0.188,0l-0.304,0.33l0.305,0.406l-0.184,0l-0.227,-0.314l-0.036,0.036l0,0.278l-0.147,-0l0,-0.736l0.147,0l0,0.262Z" style="fill:#fff;fill-rule:nonzero;"/></g></g><g transform="matrix(0.956344,0.292243,-0.292243,0.956344,14.0754,-52.6977)"><g transform="matrix(16.6667,0,0,16.6667,183.424,20.7631)"><path d="M0.012,-0l0.332,-0.765l0.008,0l0.332,0.765l-0.168,-0l-0.212,-0.538l0.105,-0.072l-0.254,0.61l-0.143,0Zm0.227,-0.266l0.221,0l0.051,0.122l-0.317,0l0.045,-0.122Z" style="fill:#fff;fill-rule:nonzero;"/></g></g><g transform="matrix(0.933123,0.359558,-0.359558,0.933123,21.876,-68.5677)"><g transform="matrix(16.6667,0,0,16.6667,195.261,24.5232)"><rect x="0.095" y="-0.736" width="0.145" height="0.736" style="fill:#fff;fill-rule:nonzero;"/></g></g><g transform="matrix(0.90784,0.419316,-0.419316,0.90784,29.8052,-81.9554)"><g transform="matrix(16.6667,0,0,16.6667,201.347,26.8276)"><path d="M0.045,-0.736l0.496,0l0,0.14l-0.179,0l-0,0.596l-0.145,-0l-0,-0.596l-0.172,0l-0,-0.14Z" style="fill:#fff;fill-rule:nonzero;"/></g></g><g transform="matrix(0.872393,0.488806,-0.488806,0.872393,41.8231,-98.703)"><g transform="matrix(16.6667,0,0,16.6667,209.955,30.7512)"><path d="M0.012,-0l0.332,-0.765l0.008,0l0.332,0.765l-0.168,-0l-0.212,-0.538l0.105,-0.072l-0.254,0.61l-0.143,0Zm0.227,-0.266l0.221,0l0.051,0.122l-0.317,0l0.045,-0.122Z" style="fill:#fff;fill-rule:nonzero;"/></g></g><g transform="matrix(0.824944,0.565214,-0.565214,0.824944,59.1209,-118.035)"><g transform="matrix(16.6667,0,0,16.6667,220.114,36.4261)"><path d="M0.692,-0.074c-0.009,0.009 -0.022,0.019 -0.041,0.028c-0.019,0.01 -0.04,0.019 -0.065,0.027c-0.024,0.008 -0.049,0.014 -0.074,0.02c-0.025,0.005 -0.049,0.007 -0.072,0.007c-0.06,0 -0.114,-0.009 -0.162,-0.027c-0.048,-0.017 -0.089,-0.042 -0.123,-0.074c-0.034,-0.031 -0.06,-0.069 -0.078,-0.112c-0.018,-0.043 -0.027,-0.091 -0.027,-0.142c-0,-0.067 0.01,-0.126 0.03,-0.175c0.021,-0.05 0.048,-0.092 0.083,-0.124c0.035,-0.033 0.076,-0.058 0.121,-0.074c0.046,-0.016 0.094,-0.024 0.144,-0.024c0.047,-0 0.091,0.005 0.13,0.015c0.039,0.011 0.073,0.024 0.1,0.039l-0.047,0.135c-0.012,-0.007 -0.028,-0.013 -0.048,-0.02c-0.02,-0.007 -0.04,-0.012 -0.061,-0.017c-0.021,-0.004 -0.039,-0.006 -0.055,-0.006c-0.04,0 -0.075,0.005 -0.106,0.015c-0.031,0.01 -0.057,0.025 -0.078,0.045c-0.02,0.02 -0.036,0.045 -0.047,0.074c-0.011,0.03 -0.016,0.065 -0.016,0.104c0,0.035 0.006,0.066 0.018,0.093c0.012,0.028 0.029,0.052 0.05,0.071c0.022,0.019 0.048,0.034 0.078,0.044c0.029,0.01 0.062,0.015 0.098,0.015c0.021,-0 0.04,-0.002 0.057,-0.005c0.017,-0.003 0.032,-0.007 0.044,-0.014l-0,-0.089l-0.127,-0l-0,-0.14l0.274,-0l-0,0.311Z" style="fill:#fff;fill-rule:nonzero;"/></g></g><g transform="matrix(0.739735,0.672899,-0.672899,0.739735,93.8391,-146.356)"><g transform="matrix(16.6667,0,0,16.6667,236.117,48.1292)"><path d="M0.488,-0.558c-0.028,-0.015 -0.056,-0.028 -0.085,-0.038c-0.029,-0.01 -0.057,-0.015 -0.082,-0.015c-0.031,0 -0.056,0.006 -0.074,0.019c-0.018,0.013 -0.027,0.032 -0.027,0.057c0,0.017 0.007,0.033 0.021,0.047c0.013,0.013 0.031,0.025 0.053,0.036c0.021,0.011 0.044,0.02 0.067,0.029c0.021,0.008 0.043,0.018 0.064,0.029c0.021,0.011 0.039,0.024 0.056,0.041c0.017,0.016 0.03,0.036 0.04,0.061c0.01,0.024 0.015,0.054 0.015,0.089c0,0.037 -0.01,0.072 -0.029,0.104c-0.019,0.032 -0.048,0.058 -0.085,0.078c-0.037,0.019 -0.083,0.029 -0.138,0.029c-0.028,0 -0.056,-0.003 -0.085,-0.008c-0.029,-0.006 -0.058,-0.015 -0.086,-0.026c-0.028,-0.012 -0.055,-0.027 -0.081,-0.045l0.064,-0.113c0.017,0.013 0.036,0.024 0.057,0.034c0.02,0.009 0.04,0.017 0.061,0.022c0.021,0.005 0.04,0.008 0.057,0.008c0.017,0 0.035,-0.002 0.053,-0.007c0.017,-0.005 0.032,-0.014 0.044,-0.026c0.011,-0.012 0.017,-0.029 0.017,-0.05c0,-0.015 -0.005,-0.028 -0.014,-0.04c-0.01,-0.012 -0.023,-0.023 -0.039,-0.033c-0.017,-0.01 -0.035,-0.019 -0.054,-0.026c-0.023,-0.009 -0.046,-0.019 -0.07,-0.03c-0.024,-0.011 -0.046,-0.025 -0.067,-0.041c-0.021,-0.017 -0.038,-0.037 -0.051,-0.061c-0.013,-0.025 -0.02,-0.055 -0.02,-0.09c0,-0.043 0.01,-0.08 0.029,-0.111c0.019,-0.031 0.045,-0.056 0.08,-0.075c0.035,-0.018 0.075,-0.028 0.12,-0.03c0.059,0 0.108,0.007 0.145,0.021c0.037,0.014 0.07,0.031 0.099,0.05l-0.055,0.111Z" style="fill:#fff;fill-rule:nonzero;"/></g></g><g transform="matrix(0.685062,0.728484,-0.728484,0.685062,116.951,-160.229)"><g transform="matrix(16.6667,0,0,16.6667,243.789,55.1463)"><path d="M0.045,-0.736l0.496,0l0,0.14l-0.179,0l-0,0.596l-0.145,-0l-0,-0.596l-0.172,0l-0,-0.14Z" style="fill:#fff;fill-rule:nonzero;"/></g></g><g transform="matrix(0.618857,0.785504,-0.785504,0.618857,144.837,-173.201)"><g transform="matrix(16.6667,0,0,16.6667,250.895,62.6482)"><path d="M0.225,-0.272c0,0.023 0.007,0.046 0.021,0.067c0.014,0.021 0.033,0.039 0.055,0.052c0.024,0.013 0.049,0.02 0.076,0.02c0.03,0 0.057,-0.007 0.08,-0.02c0.023,-0.013 0.042,-0.031 0.055,-0.052c0.014,-0.021 0.021,-0.044 0.021,-0.067l0,-0.464l0.143,0l0,0.467c0,0.054 -0.013,0.102 -0.04,0.143c-0.027,0.042 -0.063,0.075 -0.108,0.098c-0.045,0.024 -0.096,0.036 -0.151,0.036c-0.055,-0 -0.104,-0.012 -0.15,-0.036c-0.045,-0.023 -0.08,-0.056 -0.107,-0.098c-0.027,-0.041 -0.04,-0.089 -0.04,-0.143l-0,-0.467l0.145,0l0,0.464Z" style="fill:#fff;fill-rule:nonzero;"/></g></g><g transform="matrix(0.537177,0.84347,-0.84347,0.537177,181.229,-184.684)"><g transform="matrix(16.6667,0,0,16.6667,258.903,72.798)"><path d="M0.095,-0l0,-0.736l0.22,0c0.074,-0 0.137,0.011 0.189,0.033c0.052,0.022 0.094,0.051 0.126,0.088c0.031,0.037 0.054,0.078 0.069,0.123c0.015,0.045 0.022,0.091 0.022,0.137c-0,0.055 -0.01,0.104 -0.03,0.147c-0.019,0.044 -0.046,0.081 -0.08,0.112c-0.034,0.031 -0.073,0.055 -0.118,0.071c-0.045,0.017 -0.092,0.025 -0.142,0.025l-0.256,-0Zm0.145,-0.14l0.086,-0c0.037,-0 0.07,-0.005 0.1,-0.015c0.03,-0.009 0.056,-0.023 0.078,-0.042c0.021,-0.019 0.038,-0.042 0.049,-0.071c0.012,-0.028 0.018,-0.06 0.018,-0.097c0,-0.048 -0.008,-0.087 -0.024,-0.117c-0.015,-0.031 -0.034,-0.054 -0.058,-0.071c-0.023,-0.017 -0.046,-0.028 -0.07,-0.035c-0.024,-0.006 -0.044,-0.009 -0.061,-0.009l-0.118,0l-0,0.457Z" style="fill:#fff;fill-rule:nonzero;"/></g></g><g transform="matrix(0.47488,0.880051,-0.880051,0.47488,213.999,-189.877)"><g transform="matrix(16.6667,0,0,16.6667,266.107,84.3824)"><rect x="0.095" y="-0.736" width="0.145" height="0.736" style="fill:#fff;fill-rule:nonzero;"/></g></g><g transform="matrix(0.41081,0.911721,-0.911721,0.41081,240.663,-192.438)"><g transform="matrix(16.6667,0,0,16.6667,269.222,89.9839)"><path d="M0.095,-0.736l0.502,0l0,0.14l-0.357,0l0,0.157l0.316,-0l0,0.14l-0.316,-0l-0,0.159l0.371,-0l0,0.14l-0.516,-0l0,-0.736Z" style="fill:#fff;fill-rule:nonzero;"/></g></g><g transform="matrix(0.336099,0.941827,-0.941827,0.336099,276.781,-191.203)"><g transform="matrix(16.6667,0,0,16.6667,274.013,100.723)"><path d="M0.488,-0.558c-0.028,-0.015 -0.056,-0.028 -0.085,-0.038c-0.029,-0.01 -0.057,-0.015 -0.082,-0.015c-0.031,0 -0.056,0.006 -0.074,0.019c-0.018,0.013 -0.027,0.032 -0.027,0.057c0,0.017 0.007,0.033 0.021,0.047c0.013,0.013 0.031,0.025 0.053,0.036c0.021,0.011 0.044,0.02 0.067,0.029c0.021,0.008 0.043,0.018 0.064,0.029c0.021,0.011 0.039,0.024 0.056,0.041c0.017,0.016 0.03,0.036 0.04,0.061c0.01,0.024 0.015,0.054 0.015,0.089c0,0.037 -0.01,0.072 -0.029,0.104c-0.019,0.032 -0.048,0.058 -0.085,0.078c-0.037,0.019 -0.083,0.029 -0.138,0.029c-0.028,0 -0.056,-0.003 -0.085,-0.008c-0.029,-0.006 -0.058,-0.015 -0.086,-0.026c-0.028,-0.012 -0.055,-0.027 -0.081,-0.045l0.064,-0.113c0.017,0.013 0.036,0.024 0.057,0.034c0.02,0.009 0.04,0.017 0.061,0.022c0.021,0.005 0.04,0.008 0.057,0.008c0.017,0 0.035,-0.002 0.053,-0.007c0.017,-0.005 0.032,-0.014 0.044,-0.026c0.011,-0.012 0.017,-0.029 0.017,-0.05c0,-0.015 -0.005,-0.028 -0.014,-0.04c-0.01,-0.012 -0.023,-0.023 -0.039,-0.033c-0.017,-0.01 -0.035,-0.019 -0.054,-0.026c-0.023,-0.009 -0.046,-0.019 -0.07,-0.03c-0.024,-0.011 -0.046,-0.025 -0.067,-0.041c-0.021,-0.017 -0.038,-0.037 -0.051,-0.061c-0.013,-0.025 -0.02,-0.055 -0.02,-0.09c0,-0.043 0.01,-0.08 0.029,-0.111c0.019,-0.031 0.045,-0.056 0.08,-0.075c0.035,-0.018 0.075,-0.028 0.12,-0.03c0.059,0 0.108,0.007 0.145,0.021c0.037,0.014 0.07,0.031 0.099,0.05l-0.055,0.111Z" style="fill:#fff;fill-rule:nonzero;"/></g></g><g transform="matrix(0.217143,0.97614,-0.97614,0.217143,332.805,-181.039)"><g transform="matrix(16.6667,0,0,16.6667,279.271,116.967)"><path d="M0.08,-0.306c0,-0.031 0.007,-0.059 0.022,-0.084c0.015,-0.025 0.034,-0.045 0.059,-0.061c0.025,-0.015 0.053,-0.022 0.083,-0.022c0.031,0 0.059,0.008 0.084,0.023c0.025,0.015 0.045,0.035 0.06,0.06c0.015,0.025 0.022,0.053 0.022,0.084c-0,0.031 -0.008,0.058 -0.023,0.083c-0.015,0.025 -0.034,0.045 -0.059,0.059c-0.026,0.015 -0.053,0.022 -0.084,0.022c-0.03,-0 -0.057,-0.007 -0.082,-0.022c-0.025,-0.014 -0.045,-0.034 -0.06,-0.059c-0.015,-0.025 -0.022,-0.052 -0.022,-0.083Z" style="fill:#fff;fill-rule:nonzero;"/></g></g><g transform="matrix(0.0866107,0.996242,-0.996242,0.0866107,389.367,-160.627)"><g transform="matrix(16.6667,0,0,16.6667,282.282,132.03)"><path d="M0.225,-0.272c0,0.023 0.007,0.046 0.021,0.067c0.014,0.021 0.033,0.039 0.055,0.052c0.024,0.013 0.049,0.02 0.076,0.02c0.03,0 0.057,-0.007 0.08,-0.02c0.023,-0.013 0.042,-0.031 0.055,-0.052c0.014,-0.021 0.021,-0.044 0.021,-0.067l0,-0.464l0.143,0l0,0.467c0,0.054 -0.013,0.102 -0.04,0.143c-0.027,0.042 -0.063,0.075 -0.108,0.098c-0.045,0.024 -0.096,0.036 -0.151,0.036c-0.055,-0 -0.104,-0.012 -0.15,-0.036c-0.045,-0.023 -0.08,-0.056 -0.107,-0.098c-0.027,-0.041 -0.04,-0.089 -0.04,-0.143l-0,-0.467l0.145,0l0,0.464Z" style="fill:#fff;fill-rule:nonzero;"/></g></g><g transform="matrix(-0.00931529,0.999957,-0.999957,-0.00931529,430.988,-137.055)"><g transform="matrix(16.6667,0,0,16.6667,283.386,144.968)"><path d="M0.318,-0.736c0.046,-0 0.087,0.006 0.123,0.017c0.036,0.012 0.066,0.029 0.09,0.05c0.025,0.022 0.043,0.048 0.056,0.078c0.013,0.031 0.019,0.065 0.019,0.103c-0,0.03 -0.005,0.06 -0.014,0.09c-0.009,0.03 -0.023,0.057 -0.044,0.082c-0.02,0.025 -0.047,0.044 -0.08,0.059c-0.033,0.015 -0.075,0.023 -0.124,0.023l-0.104,0l-0,0.234l-0.145,-0l-0,-0.736l0.223,0Zm0.025,0.362c0.022,0 0.04,-0.004 0.055,-0.011c0.015,-0.007 0.026,-0.017 0.034,-0.028c0.009,-0.011 0.015,-0.023 0.018,-0.035c0.004,-0.013 0.006,-0.024 0.006,-0.035c-0,-0.008 -0.001,-0.018 -0.004,-0.03c-0.002,-0.013 -0.007,-0.025 -0.014,-0.038c-0.007,-0.013 -0.019,-0.023 -0.034,-0.032c-0.015,-0.009 -0.035,-0.013 -0.06,-0.013l-0.104,0l-0,0.222l0.103,0Zm0.136,0.09l0.182,0.284l-0.169,0l-0.186,-0.28l0.173,-0.004Z" style="fill:#fff;fill-rule:nonzero;"/></g></g><g transform="matrix(-0.0879888,0.996121,-0.996121,-0.0879888,464.65,-111.205)"><g transform="matrix(16.6667,0,0,16.6667,283.233,157.106)"><path d="M0.488,-0.558c-0.028,-0.015 -0.056,-0.028 -0.085,-0.038c-0.029,-0.01 -0.057,-0.015 -0.082,-0.015c-0.031,0 -0.056,0.006 -0.074,0.019c-0.018,0.013 -0.027,0.032 -0.027,0.057c0,0.017 0.007,0.033 0.021,0.047c0.013,0.013 0.031,0.025 0.053,0.036c0.021,0.011 0.044,0.02 0.067,0.029c0.021,0.008 0.043,0.018 0.064,0.029c0.021,0.011 0.039,0.024 0.056,0.041c0.017,0.016 0.03,0.036 0.04,0.061c0.01,0.024 0.015,0.054 0.015,0.089c0,0.037 -0.01,0.072 -0.029,0.104c-0.019,0.032 -0.048,0.058 -0.085,0.078c-0.037,0.019 -0.083,0.029 -0.138,0.029c-0.028,0 -0.056,-0.003 -0.085,-0.008c-0.029,-0.006 -0.058,-0.015 -0.086,-0.026c-0.028,-0.012 -0.055,-0.027 -0.081,-0.045l0.064,-0.113c0.017,0.013 0.036,0.024 0.057,0.034c0.02,0.009 0.04,0.017 0.061,0.022c0.021,0.005 0.04,0.008 0.057,0.008c0.017,0 0.035,-0.002 0.053,-0.007c0.017,-0.005 0.032,-0.014 0.044,-0.026c0.011,-0.012 0.017,-0.029 0.017,-0.05c0,-0.015 -0.005,-0.028 -0.014,-0.04c-0.01,-0.012 -0.023,-0.023 -0.039,-0.033c-0.017,-0.01 -0.035,-0.019 -0.054,-0.026c-0.023,-0.009 -0.046,-0.019 -0.07,-0.03c-0.024,-0.011 -0.046,-0.025 -0.067,-0.041c-0.021,-0.017 -0.038,-0.037 -0.051,-0.061c-0.013,-0.025 -0.02,-0.055 -0.02,-0.09c0,-0.043 0.01,-0.08 0.029,-0.111c0.019,-0.031 0.045,-0.056 0.08,-0.075c0.035,-0.018 0.075,-0.028 0.12,-0.03c0.059,0 0.108,0.007 0.145,0.021c0.037,0.014 0.07,0.031 0.099,0.05l-0.055,0.111Z" style="fill:#fff;fill-rule:nonzero;"/></g></g><g transform="matrix(-0.165392,0.986228,-0.986228,-0.165392,494.134,-83.2342)"><g transform="matrix(16.6667,0,0,16.6667,282.286,167.467)"><path d="M0.488,-0.558c-0.028,-0.015 -0.056,-0.028 -0.085,-0.038c-0.029,-0.01 -0.057,-0.015 -0.082,-0.015c-0.031,0 -0.056,0.006 -0.074,0.019c-0.018,0.013 -0.027,0.032 -0.027,0.057c0,0.017 0.007,0.033 0.021,0.047c0.013,0.013 0.031,0.025 0.053,0.036c0.021,0.011 0.044,0.02 0.067,0.029c0.021,0.008 0.043,0.018 0.064,0.029c0.021,0.011 0.039,0.024 0.056,0.041c0.017,0.016 0.03,0.036 0.04,0.061c0.01,0.024 0.015,0.054 0.015,0.089c0,0.037 -0.01,0.072 -0.029,0.104c-0.019,0.032 -0.048,0.058 -0.085,0.078c-0.037,0.019 -0.083,0.029 -0.138,0.029c-0.028,0 -0.056,-0.003 -0.085,-0.008c-0.029,-0.006 -0.058,-0.015 -0.086,-0.026c-0.028,-0.012 -0.055,-0.027 -0.081,-0.045l0.064,-0.113c0.017,0.013 0.036,0.024 0.057,0.034c0.02,0.009 0.04,0.017 0.061,0.022c0.021,0.005 0.04,0.008 0.057,0.008c0.017,0 0.035,-0.002 0.053,-0.007c0.017,-0.005 0.032,-0.014 0.044,-0.026c0.011,-0.012 0.017,-0.029 0.017,-0.05c0,-0.015 -0.005,-0.028 -0.014,-0.04c-0.01,-0.012 -0.023,-0.023 -0.039,-0.033c-0.017,-0.01 -0.035,-0.019 -0.054,-0.026c-0.023,-0.009 -0.046,-0.019 -0.07,-0.03c-0.024,-0.011 -0.046,-0.025 -0.067,-0.041c-0.021,-0.017 -0.038,-0.037 -0.051,-0.061c-0.013,-0.025 -0.02,-0.055 -0.02,-0.09c0,-0.043 0.01,-0.08 0.029,-0.111c0.019,-0.031 0.045,-0.056 0.08,-0.075c0.035,-0.018 0.075,-0.028 0.12,-0.03c0.059,0 0.108,0.007 0.145,0.021c0.037,0.014 0.07,0.031 0.099,0.05l-0.055,0.111Z" style="fill:#fff;fill-rule:nonzero;"/></g></g><g transform="matrix(-0.229333,0.973348,-0.973348,-0.229333,517.939,-54.2049)"><g transform="matrix(16.6667,0,0,16.6667,280.429,177.942)"><rect x="0.095" y="-0.736" width="0.145" height="0.736" style="fill:#fff;fill-rule:nonzero;"/></g></g><g transform="matrix(-0.3002,0.953876,-0.953876,-0.3002,538.506,-26.727)"><g transform="matrix(16.6667,0,0,16.6667,279.057,184.171)"><path d="M0.206,-0.736l0.215,0.53l-0.084,-0.017l0.195,-0.513l0.172,0l-0.336,0.77l-0.336,-0.77l0.174,0Z" style="fill:#fff;fill-rule:nonzero;"/></g></g><g transform="matrix(-0.377581,0.925977,-0.925977,-0.377581,560.278,13.1551)"><g transform="matrix(16.6667,0,0,16.6667,275.718,194.88)"><path d="M0.012,-0l0.332,-0.765l0.008,0l0.332,0.765l-0.168,-0l-0.212,-0.538l0.105,-0.072l-0.254,0.61l-0.143,0Zm0.227,-0.266l0.221,0l0.051,0.122l-0.317,0l0.045,-0.122Z" style="fill:#fff;fill-rule:nonzero;"/></g></g><g transform="matrix(-0.463164,0.886272,-0.886272,-0.463164,579.368,61.1016)"><g transform="matrix(16.6667,0,0,16.6667,271.179,206.019)"><path d="M0.318,-0.736c0.046,-0 0.087,0.006 0.123,0.017c0.036,0.012 0.066,0.029 0.09,0.05c0.025,0.022 0.043,0.048 0.056,0.078c0.013,0.031 0.019,0.065 0.019,0.103c-0,0.03 -0.005,0.06 -0.014,0.09c-0.009,0.03 -0.023,0.057 -0.044,0.082c-0.02,0.025 -0.047,0.044 -0.08,0.059c-0.033,0.015 -0.075,0.023 -0.124,0.023l-0.104,0l-0,0.234l-0.145,-0l-0,-0.736l0.223,0Zm0.025,0.362c0.022,0 0.04,-0.004 0.055,-0.011c0.015,-0.007 0.026,-0.017 0.034,-0.028c0.009,-0.011 0.015,-0.023 0.018,-0.035c0.004,-0.013 0.006,-0.024 0.006,-0.035c-0,-0.008 -0.001,-0.018 -0.004,-0.03c-0.002,-0.013 -0.007,-0.025 -0.014,-0.038c-0.007,-0.013 -0.019,-0.023 -0.034,-0.032c-0.015,-0.009 -0.035,-0.013 -0.06,-0.013l-0.104,0l-0,0.222l0.103,0Zm0.136,0.09l0.182,0.284l-0.169,0l-0.186,-0.28l0.173,-0.004Z" style="fill:#fff;fill-rule:nonzero;"/></g></g><g transform="matrix(-0.569382,0.822073,-0.822073,-0.569382,594.051,133.656)"><g transform="matrix(16.6667,0,0,16.6667,262.02,222.416)"><path d="M0.08,-0.306c0,-0.031 0.007,-0.059 0.022,-0.084c0.015,-0.025 0.034,-0.045 0.059,-0.061c0.025,-0.015 0.053,-0.022 0.083,-0.022c0.031,0 0.059,0.008 0.084,0.023c0.025,0.015 0.045,0.035 0.06,0.06c0.015,0.025 0.022,0.053 0.022,0.084c-0,0.031 -0.008,0.058 -0.023,0.083c-0.015,0.025 -0.034,0.045 -0.059,0.059c-0.026,0.015 -0.053,0.022 -0.084,0.022c-0.03,-0 -0.057,-0.007 -0.082,-0.022c-0.025,-0.014 -0.045,-0.034 -0.06,-0.059c-0.015,-0.025 -0.022,-0.052 -0.022,-0.083Z" style="fill:#fff;fill-rule:nonzero;"/></g></g><g transform="matrix(-0.673037,0.739609,-0.739609,-0.673037,597.019,205.768)"><g transform="matrix(16.6667,0,0,16.6667,253.027,234.848)"><path d="M0.242,-0.474l-0.004,0.037l0.022,-0.028l0.24,-0.271l0.188,0l-0.304,0.33l0.305,0.406l-0.184,0l-0.227,-0.314l-0.036,0.036l0,0.278l-0.147,-0l0,-0.736l0.147,0l0,0.262Z" style="fill:#fff;fill-rule:nonzero;"/></g></g><g transform="matrix(-0.734197,0.678936,-0.678936,-0.734197,590.048,256.926)"><g transform="matrix(16.6667,0,0,16.6667,244.731,243.964)"><path d="M0.012,-0l0.332,-0.765l0.008,0l0.332,0.765l-0.168,-0l-0.212,-0.538l0.105,-0.072l-0.254,0.61l-0.143,0Zm0.227,-0.266l0.221,0l0.051,0.122l-0.317,0l0.045,-0.122Z" style="fill:#fff;fill-rule:nonzero;"/></g></g><g transform="matrix(-0.779928,0.625869,-0.625869,-0.779928,577.117,301.667)"><g transform="matrix(16.6667,0,0,16.6667,235.521,252.298)"><rect x="0.095" y="-0.736" width="0.145" height="0.736" style="fill:#fff;fill-rule:nonzero;"/></g></g><g transform="matrix(-0.818429,0.574608,-0.574608,-0.818429,566.421,333.817)"><g transform="matrix(16.6667,0,0,16.6667,230.469,256.401)"><path d="M0.045,-0.736l0.496,0l0,0.14l-0.179,0l-0,0.596l-0.145,-0l-0,-0.596l-0.172,0l-0,-0.14Z" style="fill:#fff;fill-rule:nonzero;"/></g></g><g transform="matrix(-0.860614,0.509258,-0.509258,-0.860614,547.787,373.849)"><g transform="matrix(16.6667,0,0,16.6667,222.732,261.89)"><path d="M0.012,-0l0.332,-0.765l0.008,0l0.332,0.765l-0.168,-0l-0.212,-0.538l0.105,-0.072l-0.254,0.61l-0.143,0Zm0.227,-0.266l0.221,0l0.051,0.122l-0.317,0l0.045,-0.122Z" style="fill:#fff;fill-rule:nonzero;"/></g></g><g transform="matrix(-0.902905,0.42984,-0.42984,-0.902905,519.977,418.169)"><g transform="matrix(16.6667,0,0,16.6667,212.759,267.812)"><path d="M0.692,-0.074c-0.009,0.009 -0.022,0.019 -0.041,0.028c-0.019,0.01 -0.04,0.019 -0.065,0.027c-0.024,0.008 -0.049,0.014 -0.074,0.02c-0.025,0.005 -0.049,0.007 -0.072,0.007c-0.06,0 -0.114,-0.009 -0.162,-0.027c-0.048,-0.017 -0.089,-0.042 -0.123,-0.074c-0.034,-0.031 -0.06,-0.069 -0.078,-0.112c-0.018,-0.043 -0.027,-0.091 -0.027,-0.142c-0,-0.067 0.01,-0.126 0.03,-0.175c0.021,-0.05 0.048,-0.092 0.083,-0.124c0.035,-0.033 0.076,-0.058 0.121,-0.074c0.046,-0.016 0.094,-0.024 0.144,-0.024c0.047,-0 0.091,0.005 0.13,0.015c0.039,0.011 0.073,0.024 0.1,0.039l-0.047,0.135c-0.012,-0.007 -0.028,-0.013 -0.048,-0.02c-0.02,-0.007 -0.04,-0.012 -0.061,-0.017c-0.021,-0.004 -0.039,-0.006 -0.055,-0.006c-0.04,0 -0.075,0.005 -0.106,0.015c-0.031,0.01 -0.057,0.025 -0.078,0.045c-0.02,0.02 -0.036,0.045 -0.047,0.074c-0.011,0.03 -0.016,0.065 -0.016,0.104c0,0.035 0.006,0.066 0.018,0.093c0.012,0.028 0.029,0.052 0.05,0.071c0.022,0.019 0.048,0.034 0.078,0.044c0.029,0.01 0.062,0.015 0.098,0.015c0.021,-0 0.04,-0.002 0.057,-0.005c0.017,-0.003 0.032,-0.007 0.044,-0.014l-0,-0.089l-0.127,-0l-0,-0.14l0.274,-0l-0,0.311Z" style="fill:#fff;fill-rule:nonzero;"/></g></g><g transform="matrix(-0.953818,0.300384,-0.300384,-0.953818,463.081,480.343)"><g transform="matrix(16.6667,0,0,16.6667,194.616,275.769)"><path d="M0.488,-0.558c-0.028,-0.015 -0.056,-0.028 -0.085,-0.038c-0.029,-0.01 -0.057,-0.015 -0.082,-0.015c-0.031,0 -0.056,0.006 -0.074,0.019c-0.018,0.013 -0.027,0.032 -0.027,0.057c0,0.017 0.007,0.033 0.021,0.047c0.013,0.013 0.031,0.025 0.053,0.036c0.021,0.011 0.044,0.02 0.067,0.029c0.021,0.008 0.043,0.018 0.064,0.029c0.021,0.011 0.039,0.024 0.056,0.041c0.017,0.016 0.03,0.036 0.04,0.061c0.01,0.024 0.015,0.054 0.015,0.089c0,0.037 -0.01,0.072 -0.029,0.104c-0.019,0.032 -0.048,0.058 -0.085,0.078c-0.037,0.019 -0.083,0.029 -0.138,0.029c-0.028,0 -0.056,-0.003 -0.085,-0.008c-0.029,-0.006 -0.058,-0.015 -0.086,-0.026c-0.028,-0.012 -0.055,-0.027 -0.081,-0.045l0.064,-0.113c0.017,0.013 0.036,0.024 0.057,0.034c0.02,0.009 0.04,0.017 0.061,0.022c0.021,0.005 0.04,0.008 0.057,0.008c0.017,0 0.035,-0.002 0.053,-0.007c0.017,-0.005 0.032,-0.014 0.044,-0.026c0.011,-0.012 0.017,-0.029 0.017,-0.05c0,-0.015 -0.005,-0.028 -0.014,-0.04c-0.01,-0.012 -0.023,-0.023 -0.039,-0.033c-0.017,-0.01 -0.035,-0.019 -0.054,-0.026c-0.023,-0.009 -0.046,-0.019 -0.07,-0.03c-0.024,-0.011 -0.046,-0.025 -0.067,-0.041c-0.021,-0.017 -0.038,-0.037 -0.051,-0.061c-0.013,-0.025 -0.02,-0.055 -0.02,-0.09c0,-0.043 0.01,-0.08 0.029,-0.111c0.019,-0.031 0.045,-0.056 0.08,-0.075c0.035,-0.018 0.075,-0.028 0.12,-0.03c0.059,0 0.108,0.007 0.145,0.021c0.037,0.014 0.07,0.031 0.099,0.05l-0.055,0.111Z" style="fill:#fff;fill-rule:nonzero;"/></g></g><g transform="matrix(-0.974631,0.223816,-0.223816,-0.974631,427.107,509.319)"><g transform="matrix(16.6667,0,0,16.6667,184.689,278.865)"><path d="M0.045,-0.736l0.496,0l0,0.14l-0.179,0l-0,0.596l-0.145,-0l-0,-0.596l-0.172,0l-0,-0.14Z" style="fill:#fff;fill-rule:nonzero;"/></g></g><g transform="matrix(-0.990571,0.136999,-0.136999,-0.990571,386.199,535.835)"><g transform="matrix(16.6667,0,0,16.6667,174.66,281.208)"><path d="M0.225,-0.272c0,0.023 0.007,0.046 0.021,0.067c0.014,0.021 0.033,0.039 0.055,0.052c0.024,0.013 0.049,0.02 0.076,0.02c0.03,0 0.057,-0.007 0.08,-0.02c0.023,-0.013 0.042,-0.031 0.055,-0.052c0.014,-0.021 0.021,-0.044 0.021,-0.067l0,-0.464l0.143,0l0,0.467c0,0.054 -0.013,0.102 -0.04,0.143c-0.027,0.042 -0.063,0.075 -0.108,0.098c-0.045,0.024 -0.096,0.036 -0.151,0.036c-0.055,-0 -0.104,-0.012 -0.15,-0.036c-0.045,-0.023 -0.08,-0.056 -0.107,-0.098c-0.027,-0.041 -0.04,-0.089 -0.04,-0.143l-0,-0.467l0.145,0l0,0.464Z" style="fill:#fff;fill-rule:nonzero;"/></g></g><g transform="matrix(-0.999306,0.0372434,-0.0372434,-0.999306,334.125,559.748)"><g transform="matrix(16.6667,0,0,16.6667,161.849,282.986)"><path d="M0.095,-0l0,-0.736l0.22,0c0.074,-0 0.137,0.011 0.189,0.033c0.052,0.022 0.094,0.051 0.126,0.088c0.031,0.037 0.054,0.078 0.069,0.123c0.015,0.045 0.022,0.091 0.022,0.137c-0,0.055 -0.01,0.104 -0.03,0.147c-0.019,0.044 -0.046,0.081 -0.08,0.112c-0.034,0.031 -0.073,0.055 -0.118,0.071c-0.045,0.017 -0.092,0.025 -0.142,0.025l-0.256,-0Zm0.145,-0.14l0.086,-0c0.037,-0 0.07,-0.005 0.1,-0.015c0.03,-0.009 0.056,-0.023 0.078,-0.042c0.021,-0.019 0.038,-0.042 0.049,-0.071c0.012,-0.028 0.018,-0.06 0.018,-0.097c0,-0.048 -0.008,-0.087 -0.024,-0.117c-0.015,-0.031 -0.034,-0.054 -0.058,-0.071c-0.023,-0.017 -0.046,-0.028 -0.07,-0.035c-0.024,-0.006 -0.044,-0.009 -0.061,-0.009l-0.118,0l-0,0.457Z" style="fill:#fff;fill-rule:nonzero;"/></g></g><g transform="matrix(-0.999426,-0.0338783,0.0338783,-0.999426,286.698,571.558)"><g transform="matrix(16.6667,0,0,16.6667,148.191,283.35)"><rect x="0.095" y="-0.736" width="0.145" height="0.736" style="fill:#fff;fill-rule:nonzero;"/></g></g><g transform="matrix(-0.994545,-0.104307,0.104307,-0.994545,253.265,579.673)"><g transform="matrix(16.6667,0,0,16.6667,141.79,283.214)"><path d="M0.095,-0.736l0.502,0l0,0.14l-0.357,0l0,0.157l0.316,-0l0,0.14l-0.316,-0l-0,0.159l0.371,-0l0,0.14l-0.516,-0l0,-0.736Z" style="fill:#fff;fill-rule:nonzero;"/></g></g><g transform="matrix(-0.982971,-0.183758,0.183758,-0.982971,206.141,582.987)"><g transform="matrix(16.6667,0,0,16.6667,130.082,281.942)"><path d="M0.488,-0.558c-0.028,-0.015 -0.056,-0.028 -0.085,-0.038c-0.029,-0.01 -0.057,-0.015 -0.082,-0.015c-0.031,0 -0.056,0.006 -0.074,0.019c-0.018,0.013 -0.027,0.032 -0.027,0.057c0,0.017 0.007,0.033 0.021,0.047c0.013,0.013 0.031,0.025 0.053,0.036c0.021,0.011 0.044,0.02 0.067,0.029c0.021,0.008 0.043,0.018 0.064,0.029c0.021,0.011 0.039,0.024 0.056,0.041c0.017,0.016 0.03,0.036 0.04,0.061c0.01,0.024 0.015,0.054 0.015,0.089c0,0.037 -0.01,0.072 -0.029,0.104c-0.019,0.032 -0.048,0.058 -0.085,0.078c-0.037,0.019 -0.083,0.029 -0.138,0.029c-0.028,0 -0.056,-0.003 -0.085,-0.008c-0.029,-0.006 -0.058,-0.015 -0.086,-0.026c-0.028,-0.012 -0.055,-0.027 -0.081,-0.045l0.064,-0.113c0.017,0.013 0.036,0.024 0.057,0.034c0.02,0.009 0.04,0.017 0.061,0.022c0.021,0.005 0.04,0.008 0.057,0.008c0.017,0 0.035,-0.002 0.053,-0.007c0.017,-0.005 0.032,-0.014 0.044,-0.026c0.011,-0.012 0.017,-0.029 0.017,-0.05c0,-0.015 -0.005,-0.028 -0.014,-0.04c-0.01,-0.012 -0.023,-0.023 -0.039,-0.033c-0.017,-0.01 -0.035,-0.019 -0.054,-0.026c-0.023,-0.009 -0.046,-0.019 -0.07,-0.03c-0.024,-0.011 -0.046,-0.025 -0.067,-0.041c-0.021,-0.017 -0.038,-0.037 -0.051,-0.061c-0.013,-0.025 -0.02,-0.055 -0.02,-0.09c0,-0.043 0.01,-0.08 0.029,-0.111c0.019,-0.031 0.045,-0.056 0.08,-0.075c0.035,-0.018 0.075,-0.028 0.12,-0.03c0.059,0 0.108,0.007 0.145,0.021c0.037,0.014 0.07,0.031 0.099,0.05l-0.055,0.111Z" style="fill:#fff;fill-rule:nonzero;"/></g></g><g transform="matrix(-0.952766,-0.303707,0.303707,-0.952766,136.931,577.915)"><g transform="matrix(16.6667,0,0,16.6667,113.406,278.309)"><path d="M0.08,-0.306c0,-0.031 0.007,-0.059 0.022,-0.084c0.015,-0.025 0.034,-0.045 0.059,-0.061c0.025,-0.015 0.053,-0.022 0.083,-0.022c0.031,0 0.059,0.008 0.084,0.023c0.025,0.015 0.045,0.035 0.06,0.06c0.015,0.025 0.022,0.053 0.022,0.084c-0,0.031 -0.008,0.058 -0.023,0.083c-0.015,0.025 -0.034,0.045 -0.059,0.059c-0.026,0.015 -0.053,0.022 -0.084,0.022c-0.03,-0 -0.057,-0.007 -0.082,-0.022c-0.025,-0.014 -0.045,-0.034 -0.06,-0.059c-0.015,-0.025 -0.022,-0.052 -0.022,-0.083Z" style="fill:#fff;fill-rule:nonzero;"/></g></g><g transform="matrix(-0.904211,-0.427087,0.427087,-0.904211,71.562,562.718)"><g transform="matrix(16.6667,0,0,16.6667,98.8857,273.334)"><path d="M0.225,-0.272c0,0.023 0.007,0.046 0.021,0.067c0.014,0.021 0.033,0.039 0.055,0.052c0.024,0.013 0.049,0.02 0.076,0.02c0.03,0 0.057,-0.007 0.08,-0.02c0.023,-0.013 0.042,-0.031 0.055,-0.052c0.014,-0.021 0.021,-0.044 0.021,-0.067l0,-0.464l0.143,0l0,0.467c0,0.054 -0.013,0.102 -0.04,0.143c-0.027,0.042 -0.063,0.075 -0.108,0.098c-0.045,0.024 -0.096,0.036 -0.151,0.036c-0.055,-0 -0.104,-0.012 -0.15,-0.036c-0.045,-0.023 -0.08,-0.056 -0.107,-0.098c-0.027,-0.041 -0.04,-0.089 -0.04,-0.143l-0,-0.467l0.145,0l0,0.464Z" style="fill:#fff;fill-rule:nonzero;"/></g></g><g transform="matrix(-0.858301,-0.513147,0.513147,-0.858301,24.5436,542.314)"><g transform="matrix(16.6667,0,0,16.6667,87.1485,267.768)"><path d="M0.318,-0.736c0.046,-0 0.087,0.006 0.123,0.017c0.036,0.012 0.066,0.029 0.09,0.05c0.025,0.022 0.043,0.048 0.056,0.078c0.013,0.031 0.019,0.065 0.019,0.103c-0,0.03 -0.005,0.06 -0.014,0.09c-0.009,0.03 -0.023,0.057 -0.044,0.082c-0.02,0.025 -0.047,0.044 -0.08,0.059c-0.033,0.015 -0.075,0.023 -0.124,0.023l-0.104,0l-0,0.234l-0.145,-0l-0,-0.736l0.223,0Zm0.025,0.362c0.022,0 0.04,-0.004 0.055,-0.011c0.015,-0.007 0.026,-0.017 0.034,-0.028c0.009,-0.011 0.015,-0.023 0.018,-0.035c0.004,-0.013 0.006,-0.024 0.006,-0.035c-0,-0.008 -0.001,-0.018 -0.004,-0.03c-0.002,-0.013 -0.007,-0.025 -0.014,-0.038c-0.007,-0.013 -0.019,-0.023 -0.034,-0.032c-0.015,-0.009 -0.035,-0.013 -0.06,-0.013l-0.104,0l-0,0.222l0.103,0Zm0.136,0.09l0.182,0.284l-0.169,0l-0.186,-0.28l0.173,-0.004Z" style="fill:#fff;fill-rule:nonzero;"/></g></g><g transform="matrix(-0.81497,-0.579503,0.579503,-0.81497,-12.2032,519.145)"><g transform="matrix(16.6667,0,0,16.6667,76.7774,261.521)"><path d="M0.488,-0.558c-0.028,-0.015 -0.056,-0.028 -0.085,-0.038c-0.029,-0.01 -0.057,-0.015 -0.082,-0.015c-0.031,0 -0.056,0.006 -0.074,0.019c-0.018,0.013 -0.027,0.032 -0.027,0.057c0,0.017 0.007,0.033 0.021,0.047c0.013,0.013 0.031,0.025 0.053,0.036c0.021,0.011 0.044,0.02 0.067,0.029c0.021,0.008 0.043,0.018 0.064,0.029c0.021,0.011 0.039,0.024 0.056,0.041c0.017,0.016 0.03,0.036 0.04,0.061c0.01,0.024 0.015,0.054 0.015,0.089c0,0.037 -0.01,0.072 -0.029,0.104c-0.019,0.032 -0.048,0.058 -0.085,0.078c-0.037,0.019 -0.083,0.029 -0.138,0.029c-0.028,0 -0.056,-0.003 -0.085,-0.008c-0.029,-0.006 -0.058,-0.015 -0.086,-0.026c-0.028,-0.012 -0.055,-0.027 -0.081,-0.045l0.064,-0.113c0.017,0.013 0.036,0.024 0.057,0.034c0.02,0.009 0.04,0.017 0.061,0.022c0.021,0.005 0.04,0.008 0.057,0.008c0.017,0 0.035,-0.002 0.053,-0.007c0.017,-0.005 0.032,-0.014 0.044,-0.026c0.011,-0.012 0.017,-0.029 0.017,-0.05c0,-0.015 -0.005,-0.028 -0.014,-0.04c-0.01,-0.012 -0.023,-0.023 -0.039,-0.033c-0.017,-0.01 -0.035,-0.019 -0.054,-0.026c-0.023,-0.009 -0.046,-0.019 -0.07,-0.03c-0.024,-0.011 -0.046,-0.025 -0.067,-0.041c-0.021,-0.017 -0.038,-0.037 -0.051,-0.061c-0.013,-0.025 -0.02,-0.055 -0.02,-0.09c0,-0.043 0.01,-0.08 0.029,-0.111c0.019,-0.031 0.045,-0.056 0.08,-0.075c0.035,-0.018 0.075,-0.028 0.12,-0.03c0.059,0 0.108,0.007 0.145,0.021c0.037,0.014 0.07,0.031 0.099,0.05l-0.055,0.111Z" style="fill:#fff;fill-rule:nonzero;"/></g></g><g transform="matrix(-0.767522,-0.641022,0.641022,-0.767522,-43.0297,495.298)"><g transform="matrix(16.6667,0,0,16.6667,68.2992,255.452)"><path d="M0.488,-0.558c-0.028,-0.015 -0.056,-0.028 -0.085,-0.038c-0.029,-0.01 -0.057,-0.015 -0.082,-0.015c-0.031,0 -0.056,0.006 -0.074,0.019c-0.018,0.013 -0.027,0.032 -0.027,0.057c0,0.017 0.007,0.033 0.021,0.047c0.013,0.013 0.031,0.025 0.053,0.036c0.021,0.011 0.044,0.02 0.067,0.029c0.021,0.008 0.043,0.018 0.064,0.029c0.021,0.011 0.039,0.024 0.056,0.041c0.017,0.016 0.03,0.036 0.04,0.061c0.01,0.024 0.015,0.054 0.015,0.089c0,0.037 -0.01,0.072 -0.029,0.104c-0.019,0.032 -0.048,0.058 -0.085,0.078c-0.037,0.019 -0.083,0.029 -0.138,0.029c-0.028,0 -0.056,-0.003 -0.085,-0.008c-0.029,-0.006 -0.058,-0.015 -0.086,-0.026c-0.028,-0.012 -0.055,-0.027 -0.081,-0.045l0.064,-0.113c0.017,0.013 0.036,0.024 0.057,0.034c0.02,0.009 0.04,0.017 0.061,0.022c0.021,0.005 0.04,0.008 0.057,0.008c0.017,0 0.035,-0.002 0.053,-0.007c0.017,-0.005 0.032,-0.014 0.044,-0.026c0.011,-0.012 0.017,-0.029 0.017,-0.05c0,-0.015 -0.005,-0.028 -0.014,-0.04c-0.01,-0.012 -0.023,-0.023 -0.039,-0.033c-0.017,-0.01 -0.035,-0.019 -0.054,-0.026c-0.023,-0.009 -0.046,-0.019 -0.07,-0.03c-0.024,-0.011 -0.046,-0.025 -0.067,-0.041c-0.021,-0.017 -0.038,-0.037 -0.051,-0.061c-0.013,-0.025 -0.02,-0.055 -0.02,-0.09c0,-0.043 0.01,-0.08 0.029,-0.111c0.019,-0.031 0.045,-0.056 0.08,-0.075c0.035,-0.018 0.075,-0.028 0.12,-0.03c0.059,0 0.108,0.007 0.145,0.021c0.037,0.014 0.07,0.031 0.099,0.05l-0.055,0.111Z" style="fill:#fff;fill-rule:nonzero;"/></g></g><g transform="matrix(-0.724776,-0.688985,0.688985,-0.724776,-67.4224,470.185)"><g transform="matrix(16.6667,0,0,16.6667,60.1997,248.559)"><rect x="0.095" y="-0.736" width="0.145" height="0.736" style="fill:#fff;fill-rule:nonzero;"/></g></g><g transform="matrix(-0.673037,-0.739609,0.739609,-0.673037,-87.7738,449.629)"><g transform="matrix(16.6667,0,0,16.6667,55.4983,244.216)"><path d="M0.206,-0.736l0.215,0.53l-0.084,-0.017l0.195,-0.513l0.172,0l-0.336,0.77l-0.336,-0.77l0.174,0Z" style="fill:#fff;fill-rule:nonzero;"/></g></g><g transform="matrix(-0.610905,-0.791704,0.791704,-0.610905,-109.594,417.995)"><g transform="matrix(16.6667,0,0,16.6667,47.9177,235.928)"><path d="M0.012,-0l0.332,-0.765l0.008,0l0.332,0.765l-0.168,-0l-0.212,-0.538l0.105,-0.072l-0.254,0.61l-0.143,0Zm0.227,-0.266l0.221,0l0.051,0.122l-0.317,0l0.045,-0.122Z" style="fill:#fff;fill-rule:nonzero;"/></g></g><g transform="matrix(-0.53416,-0.845384,0.845384,-0.53416,-129.17,381.601)"><g transform="matrix(16.6667,0,0,16.6667,40.5537,226.389)"><path d="M0.318,-0.736c0.046,-0 0.087,0.006 0.123,0.017c0.036,0.012 0.066,0.029 0.09,0.05c0.025,0.022 0.043,0.048 0.056,0.078c0.013,0.031 0.019,0.065 0.019,0.103c-0,0.03 -0.005,0.06 -0.014,0.09c-0.009,0.03 -0.023,0.057 -0.044,0.082c-0.02,0.025 -0.047,0.044 -0.08,0.059c-0.033,0.015 -0.075,0.023 -0.124,0.023l-0.104,0l-0,0.234l-0.145,-0l-0,-0.736l0.223,0Zm0.025,0.362c0.022,0 0.04,-0.004 0.055,-0.011c0.015,-0.007 0.026,-0.017 0.034,-0.028c0.009,-0.011 0.015,-0.023 0.018,-0.035c0.004,-0.013 0.006,-0.024 0.006,-0.035c-0,-0.008 -0.001,-0.018 -0.004,-0.03c-0.002,-0.013 -0.007,-0.025 -0.014,-0.038c-0.007,-0.013 -0.019,-0.023 -0.034,-0.032c-0.015,-0.009 -0.035,-0.013 -0.06,-0.013l-0.104,0l-0,0.222l0.103,0Zm0.136,0.09l0.182,0.284l-0.169,0l-0.186,-0.28l0.173,-0.004Z" style="fill:#fff;fill-rule:nonzero;"/></g></g><g transform="matrix(-0.425018,-0.905185,0.905185,-0.425018,-146.176,327.612)"><g transform="matrix(16.6667,0,0,16.6667,30.963,210.233)"><path d="M0.08,-0.306c0,-0.031 0.007,-0.059 0.022,-0.084c0.015,-0.025 0.034,-0.045 0.059,-0.061c0.025,-0.015 0.053,-0.022 0.083,-0.022c0.031,0 0.059,0.008 0.084,0.023c0.025,0.015 0.045,0.035 0.06,0.06c0.015,0.025 0.022,0.053 0.022,0.084c-0,0.031 -0.008,0.058 -0.023,0.083c-0.015,0.025 -0.034,0.045 -0.059,0.059c-0.026,0.015 -0.053,0.022 -0.084,0.022c-0.03,-0 -0.057,-0.007 -0.082,-0.022c-0.025,-0.014 -0.045,-0.034 -0.06,-0.059c-0.015,-0.025 -0.022,-0.052 -0.022,-0.083Z" style="fill:#fff;fill-rule:nonzero;"/></g></g><g transform="matrix(-0.3002,-0.953876,0.953876,-0.3002,-155.028,278.773)"><g transform="matrix(16.6667,0,0,16.6667,24.7454,196.253)"><path d="M0.242,-0.474l-0.004,0.037l0.022,-0.028l0.24,-0.271l0.188,0l-0.304,0.33l0.305,0.406l-0.184,0l-0.227,-0.314l-0.036,0.036l0,0.278l-0.147,-0l0,-0.736l0.147,0l0,0.262Z" style="fill:#fff;fill-rule:nonzero;"/></g></g><g transform="matrix(-0.215807,-0.976436,0.976436,-0.215807,-154.587,244.916)"><g transform="matrix(16.6667,0,0,16.6667,21.055,184.534)"><path d="M0.012,-0l0.332,-0.765l0.008,0l0.332,0.765l-0.168,-0l-0.212,-0.538l0.105,-0.072l-0.254,0.61l-0.143,0Zm0.227,-0.266l0.221,0l0.051,0.122l-0.317,0l0.045,-0.122Z" style="fill:#fff;fill-rule:nonzero;"/></g></g><g transform="matrix(-0.145965,-0.98929,0.98929,-0.145965,-149.319,215.843)"><g transform="matrix(16.6667,0,0,16.6667,18.5072,172.374)"><rect x="0.095" y="-0.736" width="0.145" height="0.736" style="fill:#fff;fill-rule:nonzero;"/></g></g><g transform="matrix(-0.0818836,-0.996642,0.996642,-0.0818836,-146.417,196.975)"><g transform="matrix(16.6667,0,0,16.6667,17.5189,165.928)"><path d="M0.045,-0.736l0.496,0l0,0.14l-0.179,0l-0,0.596l-0.145,-0l-0,-0.596l-0.172,0l-0,-0.14Z" style="fill:#fff;fill-rule:nonzero;"/></g></g><g transform="matrix(-0.00495513,-0.999988,0.999988,-0.00495513,-139.693,173.947)"><g transform="matrix(16.6667,0,0,16.6667,16.6971,156.475)"><path d="M0.012,-0l0.332,-0.765l0.008,0l0.332,0.765l-0.168,-0l-0.212,-0.538l0.105,-0.072l-0.254,0.61l-0.143,0Zm0.227,-0.266l0.221,0l0.051,0.122l-0.317,0l0.045,-0.122Z" style="fill:#fff;fill-rule:nonzero;"/></g></g><g transform="matrix(0.0836566,-0.996495,0.996495,0.0836566,-129.125,149.308)"><g transform="matrix(16.6667,0,0,16.6667,16.6215,144.863)"><path d="M0.692,-0.074c-0.009,0.009 -0.022,0.019 -0.041,0.028c-0.019,0.01 -0.04,0.019 -0.065,0.027c-0.024,0.008 -0.049,0.014 -0.074,0.02c-0.025,0.005 -0.049,0.007 -0.072,0.007c-0.06,0 -0.114,-0.009 -0.162,-0.027c-0.048,-0.017 -0.089,-0.042 -0.123,-0.074c-0.034,-0.031 -0.06,-0.069 -0.078,-0.112c-0.018,-0.043 -0.027,-0.091 -0.027,-0.142c-0,-0.067 0.01,-0.126 0.03,-0.175c0.021,-0.05 0.048,-0.092 0.083,-0.124c0.035,-0.033 0.076,-0.058 0.121,-0.074c0.046,-0.016 0.094,-0.024 0.144,-0.024c0.047,-0 0.091,0.005 0.13,0.015c0.039,0.011 0.073,0.024 0.1,0.039l-0.047,0.135c-0.012,-0.007 -0.028,-0.013 -0.048,-0.02c-0.02,-0.007 -0.04,-0.012 -0.061,-0.017c-0.021,-0.004 -0.039,-0.006 -0.055,-0.006c-0.04,0 -0.075,0.005 -0.106,0.015c-0.031,0.01 -0.057,0.025 -0.078,0.045c-0.02,0.02 -0.036,0.045 -0.047,0.074c-0.011,0.03 -0.016,0.065 -0.016,0.104c0,0.035 0.006,0.066 0.018,0.093c0.012,0.028 0.029,0.052 0.05,0.071c0.022,0.019 0.048,0.034 0.078,0.044c0.029,0.01 0.062,0.015 0.098,0.015c0.021,-0 0.04,-0.002 0.057,-0.005c0.017,-0.003 0.032,-0.007 0.044,-0.014l-0,-0.089l-0.127,-0l-0,-0.14l0.274,-0l-0,0.311Z" style="fill:#fff;fill-rule:nonzero;"/></g></g><g transform="matrix(0.220577,-0.97537,0.97537,0.220577,-107.368,115.985)"><g transform="matrix(16.6667,0,0,16.6667,18.8875,125.172)"><path d="M0.488,-0.558c-0.028,-0.015 -0.056,-0.028 -0.085,-0.038c-0.029,-0.01 -0.057,-0.015 -0.082,-0.015c-0.031,0 -0.056,0.006 -0.074,0.019c-0.018,0.013 -0.027,0.032 -0.027,0.057c0,0.017 0.007,0.033 0.021,0.047c0.013,0.013 0.031,0.025 0.053,0.036c0.021,0.011 0.044,0.02 0.067,0.029c0.021,0.008 0.043,0.018 0.064,0.029c0.021,0.011 0.039,0.024 0.056,0.041c0.017,0.016 0.03,0.036 0.04,0.061c0.01,0.024 0.015,0.054 0.015,0.089c0,0.037 -0.01,0.072 -0.029,0.104c-0.019,0.032 -0.048,0.058 -0.085,0.078c-0.037,0.019 -0.083,0.029 -0.138,0.029c-0.028,0 -0.056,-0.003 -0.085,-0.008c-0.029,-0.006 -0.058,-0.015 -0.086,-0.026c-0.028,-0.012 -0.055,-0.027 -0.081,-0.045l0.064,-0.113c0.017,0.013 0.036,0.024 0.057,0.034c0.02,0.009 0.04,0.017 0.061,0.022c0.021,0.005 0.04,0.008 0.057,0.008c0.017,0 0.035,-0.002 0.053,-0.007c0.017,-0.005 0.032,-0.014 0.044,-0.026c0.011,-0.012 0.017,-0.029 0.017,-0.05c0,-0.015 -0.005,-0.028 -0.014,-0.04c-0.01,-0.012 -0.023,-0.023 -0.039,-0.033c-0.017,-0.01 -0.035,-0.019 -0.054,-0.026c-0.023,-0.009 -0.046,-0.019 -0.07,-0.03c-0.024,-0.011 -0.046,-0.025 -0.067,-0.041c-0.021,-0.017 -0.038,-0.037 -0.051,-0.061c-0.013,-0.025 -0.02,-0.055 -0.02,-0.09c0,-0.043 0.01,-0.08 0.029,-0.111c0.019,-0.031 0.045,-0.056 0.08,-0.075c0.035,-0.018 0.075,-0.028 0.12,-0.03c0.059,0 0.108,0.007 0.145,0.021c0.037,0.014 0.07,0.031 0.099,0.05l-0.055,0.111Z" style="fill:#fff;fill-rule:nonzero;"/></g></g><g transform="matrix(0.297242,-0.954802,0.954802,0.297242,-94.9269,101.091)"><g transform="matrix(16.6667,0,0,16.6667,21.2103,115.032)"><path d="M0.045,-0.736l0.496,0l0,0.14l-0.179,0l-0,0.596l-0.145,-0l-0,-0.596l-0.172,0l-0,-0.14Z" style="fill:#fff;fill-rule:nonzero;"/></g></g><g transform="matrix(0.380419,-0.924814,0.924814,0.380419,-82.2781,87.5877)"><g transform="matrix(16.6667,0,0,16.6667,24.2297,105.2)"><path d="M0.225,-0.272c0,0.023 0.007,0.046 0.021,0.067c0.014,0.021 0.033,0.039 0.055,0.052c0.024,0.013 0.049,0.02 0.076,0.02c0.03,0 0.057,-0.007 0.08,-0.02c0.023,-0.013 0.042,-0.031 0.055,-0.052c0.014,-0.021 0.021,-0.044 0.021,-0.067l0,-0.464l0.143,0l0,0.467c0,0.054 -0.013,0.102 -0.04,0.143c-0.027,0.042 -0.063,0.075 -0.108,0.098c-0.045,0.024 -0.096,0.036 -0.151,0.036c-0.055,-0 -0.104,-0.012 -0.15,-0.036c-0.045,-0.023 -0.08,-0.056 -0.107,-0.098c-0.027,-0.041 -0.04,-0.089 -0.04,-0.143l-0,-0.467l0.145,0l0,0.464Z" style="fill:#fff;fill-rule:nonzero;"/></g></g><g transform="matrix(0.471877,-0.881665,0.881665,0.471877,-66.8098,74.9338)"><g transform="matrix(16.6667,0,0,16.6667,29.1434,93.234)"><path d="M0.095,-0l0,-0.736l0.22,0c0.074,-0 0.137,0.011 0.189,0.033c0.052,0.022 0.094,0.051 0.126,0.088c0.031,0.037 0.054,0.078 0.069,0.123c0.015,0.045 0.022,0.091 0.022,0.137c-0,0.055 -0.01,0.104 -0.03,0.147c-0.019,0.044 -0.046,0.081 -0.08,0.112c-0.034,0.031 -0.073,0.055 -0.118,0.071c-0.045,0.017 -0.092,0.025 -0.142,0.025l-0.256,-0Zm0.145,-0.14l0.086,-0c0.037,-0 0.07,-0.005 0.1,-0.015c0.03,-0.009 0.056,-0.023 0.078,-0.042c0.021,-0.019 0.038,-0.042 0.049,-0.071c0.012,-0.028 0.018,-0.06 0.018,-0.097c0,-0.048 -0.008,-0.087 -0.024,-0.117c-0.015,-0.031 -0.034,-0.054 -0.058,-0.071c-0.023,-0.017 -0.046,-0.028 -0.07,-0.035c-0.024,-0.006 -0.044,-0.009 -0.061,-0.009l-0.118,0l-0,0.457Z" style="fill:#fff;fill-rule:nonzero;"/></g></g><g transform="matrix(0.534319,-0.845283,0.845283,0.534319,-52.0709,68.0337)"><g transform="matrix(16.6667,0,0,16.6667,35.7103,81.2751)"><rect x="0.095" y="-0.736" width="0.145" height="0.736" style="fill:#fff;fill-rule:nonzero;"/></g></g><g transform="matrix(0.592845,-0.805317,0.805317,0.592845,-45.1574,62.3286)"><g transform="matrix(16.6667,0,0,16.6667,39.0615,75.8229)"><path d="M0.095,-0.736l0.502,0l0,0.14l-0.357,0l0,0.157l0.316,-0l0,0.14l-0.316,-0l-0,0.159l0.371,-0l0,0.14l-0.516,-0l0,-0.736Z" style="fill:#fff;fill-rule:nonzero;"/></g></g><g transform="matrix(0.655074,-0.755565,0.755565,0.655074,-34.2384,57.7093)"><g transform="matrix(16.6667,0,0,16.6667,46.0873,66.3545)"><path d="M0.488,-0.558c-0.028,-0.015 -0.056,-0.028 -0.085,-0.038c-0.029,-0.01 -0.057,-0.015 -0.082,-0.015c-0.031,0 -0.056,0.006 -0.074,0.019c-0.018,0.013 -0.027,0.032 -0.027,0.057c0,0.017 0.007,0.033 0.021,0.047c0.013,0.013 0.031,0.025 0.053,0.036c0.021,0.011 0.044,0.02 0.067,0.029c0.021,0.008 0.043,0.018 0.064,0.029c0.021,0.011 0.039,0.024 0.056,0.041c0.017,0.016 0.03,0.036 0.04,0.061c0.01,0.024 0.015,0.054 0.015,0.089c0,0.037 -0.01,0.072 -0.029,0.104c-0.019,0.032 -0.048,0.058 -0.085,0.078c-0.037,0.019 -0.083,0.029 -0.138,0.029c-0.028,0 -0.056,-0.003 -0.085,-0.008c-0.029,-0.006 -0.058,-0.015 -0.086,-0.026c-0.028,-0.012 -0.055,-0.027 -0.081,-0.045l0.064,-0.113c0.017,0.013 0.036,0.024 0.057,0.034c0.02,0.009 0.04,0.017 0.061,0.022c0.021,0.005 0.04,0.008 0.057,0.008c0.017,0 0.035,-0.002 0.053,-0.007c0.017,-0.005 0.032,-0.014 0.044,-0.026c0.011,-0.012 0.017,-0.029 0.017,-0.05c0,-0.015 -0.005,-0.028 -0.014,-0.04c-0.01,-0.012 -0.023,-0.023 -0.039,-0.033c-0.017,-0.01 -0.035,-0.019 -0.054,-0.026c-0.023,-0.009 -0.046,-0.019 -0.07,-0.03c-0.024,-0.011 -0.046,-0.025 -0.067,-0.041c-0.021,-0.017 -0.038,-0.037 -0.051,-0.061c-0.013,-0.025 -0.02,-0.055 -0.02,-0.09c0,-0.043 0.01,-0.08 0.029,-0.111c0.019,-0.031 0.045,-0.056 0.08,-0.075c0.035,-0.018 0.075,-0.028 0.12,-0.03c0.059,0 0.108,0.007 0.145,0.021c0.037,0.014 0.07,0.031 0.099,0.05l-0.055,0.111Z" style="fill:#fff;fill-rule:nonzero;"/></g></g><g transform="matrix(0.742111,-0.670278,0.670278,0.742111,-21.1714,52.5157)"><g transform="matrix(16.6667,0,0,16.6667,57.6608,53.7711)"><path d="M0.08,-0.306c0,-0.031 0.007,-0.059 0.022,-0.084c0.015,-0.025 0.034,-0.045 0.059,-0.061c0.025,-0.015 0.053,-0.022 0.083,-0.022c0.031,0 0.059,0.008 0.084,0.023c0.025,0.015 0.045,0.035 0.06,0.06c0.015,0.025 0.022,0.053 0.022,0.084c-0,0.031 -0.008,0.058 -0.023,0.083c-0.015,0.025 -0.034,0.045 -0.059,0.059c-0.026,0.015 -0.053,0.022 -0.084,0.022c-0.03,-0 -0.057,-0.007 -0.082,-0.022c-0.025,-0.014 -0.045,-0.034 -0.06,-0.059c-0.015,-0.025 -0.022,-0.052 -0.022,-0.083Z" style="fill:#fff;fill-rule:nonzero;"/></g></g><g transform="matrix(0.823245,-0.567686,0.567686,0.823245,-12.5786,47.051)"><g transform="matrix(16.6667,0,0,16.6667,69.2678,43.7248)"><path d="M0.225,-0.272c0,0.023 0.007,0.046 0.021,0.067c0.014,0.021 0.033,0.039 0.055,0.052c0.024,0.013 0.049,0.02 0.076,0.02c0.03,0 0.057,-0.007 0.08,-0.02c0.023,-0.013 0.042,-0.031 0.055,-0.052c0.014,-0.021 0.021,-0.044 0.021,-0.067l0,-0.464l0.143,0l0,0.467c0,0.054 -0.013,0.102 -0.04,0.143c-0.027,0.042 -0.063,0.075 -0.108,0.098c-0.045,0.024 -0.096,0.036 -0.151,0.036c-0.055,-0 -0.104,-0.012 -0.15,-0.036c-0.045,-0.023 -0.08,-0.056 -0.107,-0.098c-0.027,-0.041 -0.04,-0.089 -0.04,-0.143l-0,-0.467l0.145,0l0,0.464Z" style="fill:#fff;fill-rule:nonzero;"/></g></g><g transform="matrix(0.87451,-0.485007,0.485007,0.87451,-7.59789,43.3545)"><g transform="matrix(16.6667,0,0,16.6667,79.9818,36.3599)"><path d="M0.318,-0.736c0.046,-0 0.087,0.006 0.123,0.017c0.036,0.012 0.066,0.029 0.09,0.05c0.025,0.022 0.043,0.048 0.056,0.078c0.013,0.031 0.019,0.065 0.019,0.103c-0,0.03 -0.005,0.06 -0.014,0.09c-0.009,0.03 -0.023,0.057 -0.044,0.082c-0.02,0.025 -0.047,0.044 -0.08,0.059c-0.033,0.015 -0.075,0.023 -0.124,0.023l-0.104,0l-0,0.234l-0.145,-0l-0,-0.736l0.223,0Zm0.025,0.362c0.022,0 0.04,-0.004 0.055,-0.011c0.015,-0.007 0.026,-0.017 0.034,-0.028c0.009,-0.011 0.015,-0.023 0.018,-0.035c0.004,-0.013 0.006,-0.024 0.006,-0.035c-0,-0.008 -0.001,-0.018 -0.004,-0.03c-0.002,-0.013 -0.007,-0.025 -0.014,-0.038c-0.007,-0.013 -0.019,-0.023 -0.034,-0.032c-0.015,-0.009 -0.035,-0.013 -0.06,-0.013l-0.104,0l-0,0.222l0.103,0Zm0.136,0.09l0.182,0.284l-0.169,0l-0.186,-0.28l0.173,-0.004Z" style="fill:#fff;fill-rule:nonzero;"/></g></g><g transform="matrix(0.910383,-0.413766,0.413766,0.910383,-4.50971,40.2198)"><g transform="matrix(16.6667,0,0,16.6667,90.5937,30.5207)"><path d="M0.488,-0.558c-0.028,-0.015 -0.056,-0.028 -0.085,-0.038c-0.029,-0.01 -0.057,-0.015 -0.082,-0.015c-0.031,0 -0.056,0.006 -0.074,0.019c-0.018,0.013 -0.027,0.032 -0.027,0.057c0,0.017 0.007,0.033 0.021,0.047c0.013,0.013 0.031,0.025 0.053,0.036c0.021,0.011 0.044,0.02 0.067,0.029c0.021,0.008 0.043,0.018 0.064,0.029c0.021,0.011 0.039,0.024 0.056,0.041c0.017,0.016 0.03,0.036 0.04,0.061c0.01,0.024 0.015,0.054 0.015,0.089c0,0.037 -0.01,0.072 -0.029,0.104c-0.019,0.032 -0.048,0.058 -0.085,0.078c-0.037,0.019 -0.083,0.029 -0.138,0.029c-0.028,0 -0.056,-0.003 -0.085,-0.008c-0.029,-0.006 -0.058,-0.015 -0.086,-0.026c-0.028,-0.012 -0.055,-0.027 -0.081,-0.045l0.064,-0.113c0.017,0.013 0.036,0.024 0.057,0.034c0.02,0.009 0.04,0.017 0.061,0.022c0.021,0.005 0.04,0.008 0.057,0.008c0.017,0 0.035,-0.002 0.053,-0.007c0.017,-0.005 0.032,-0.014 0.044,-0.026c0.011,-0.012 0.017,-0.029 0.017,-0.05c0,-0.015 -0.005,-0.028 -0.014,-0.04c-0.01,-0.012 -0.023,-0.023 -0.039,-0.033c-0.017,-0.01 -0.035,-0.019 -0.054,-0.026c-0.023,-0.009 -0.046,-0.019 -0.07,-0.03c-0.024,-0.011 -0.046,-0.025 -0.067,-0.041c-0.021,-0.017 -0.038,-0.037 -0.051,-0.061c-0.013,-0.025 -0.02,-0.055 -0.02,-0.09c0,-0.043 0.01,-0.08 0.029,-0.111c0.019,-0.031 0.045,-0.056 0.08,-0.075c0.035,-0.018 0.075,-0.028 0.12,-0.03c0.059,0 0.108,0.007 0.145,0.021c0.037,0.014 0.07,0.031 0.099,0.05l-0.055,0.111Z" style="fill:#fff;fill-rule:nonzero;"/></g></g><g transform="matrix(0.940065,-0.340995,0.340995,0.940065,-2.95018,35.701)"><g transform="matrix(16.6667,0,0,16.6667,100.084,26.2429)"><path d="M0.488,-0.558c-0.028,-0.015 -0.056,-0.028 -0.085,-0.038c-0.029,-0.01 -0.057,-0.015 -0.082,-0.015c-0.031,0 -0.056,0.006 -0.074,0.019c-0.018,0.013 -0.027,0.032 -0.027,0.057c0,0.017 0.007,0.033 0.021,0.047c0.013,0.013 0.031,0.025 0.053,0.036c0.021,0.011 0.044,0.02 0.067,0.029c0.021,0.008 0.043,0.018 0.064,0.029c0.021,0.011 0.039,0.024 0.056,0.041c0.017,0.016 0.03,0.036 0.04,0.061c0.01,0.024 0.015,0.054 0.015,0.089c0,0.037 -0.01,0.072 -0.029,0.104c-0.019,0.032 -0.048,0.058 -0.085,0.078c-0.037,0.019 -0.083,0.029 -0.138,0.029c-0.028,0 -0.056,-0.003 -0.085,-0.008c-0.029,-0.006 -0.058,-0.015 -0.086,-0.026c-0.028,-0.012 -0.055,-0.027 -0.081,-0.045l0.064,-0.113c0.017,0.013 0.036,0.024 0.057,0.034c0.02,0.009 0.04,0.017 0.061,0.022c0.021,0.005 0.04,0.008 0.057,0.008c0.017,0 0.035,-0.002 0.053,-0.007c0.017,-0.005 0.032,-0.014 0.044,-0.026c0.011,-0.012 0.017,-0.029 0.017,-0.05c0,-0.015 -0.005,-0.028 -0.014,-0.04c-0.01,-0.012 -0.023,-0.023 -0.039,-0.033c-0.017,-0.01 -0.035,-0.019 -0.054,-0.026c-0.023,-0.009 -0.046,-0.019 -0.07,-0.03c-0.024,-0.011 -0.046,-0.025 -0.067,-0.041c-0.021,-0.017 -0.038,-0.037 -0.051,-0.061c-0.013,-0.025 -0.02,-0.055 -0.02,-0.09c0,-0.043 0.01,-0.08 0.029,-0.111c0.019,-0.031 0.045,-0.056 0.08,-0.075c0.035,-0.018 0.075,-0.028 0.12,-0.03c0.059,0 0.108,0.007 0.145,0.021c0.037,0.014 0.07,0.031 0.099,0.05l-0.055,0.111Z" style="fill:#fff;fill-rule:nonzero;"/></g></g><g transform="matrix(0.960279,-0.279043,0.279043,0.960279,-1.96614,31.6228)"><g transform="matrix(16.6667,0,0,16.6667,110.092,22.7175)"><rect x="0.095" y="-0.736" width="0.145" height="0.736" style="fill:#fff;fill-rule:nonzero;"/></g></g><g transform="matrix(0.978176,-0.207777,0.207777,0.978176,-1.79587,24.5971)"><g transform="matrix(16.6667,0,0,16.6667,116.192,20.8475)"><path d="M0.206,-0.736l0.215,0.53l-0.084,-0.017l0.195,-0.513l0.172,0l-0.336,0.77l-0.336,-0.77l0.174,0Z" style="fill:#fff;fill-rule:nonzero;"/></g></g><g transform="matrix(0.991923,-0.126842,0.126842,0.991923,-1.31744,16.281)"><g transform="matrix(16.6667,0,0,16.6667,127.179,18.485)"><path d="M0.012,-0l0.332,-0.765l0.008,0l0.332,0.765l-0.168,-0l-0.212,-0.538l0.105,-0.072l-0.254,0.61l-0.143,0Zm0.227,-0.266l0.221,0l0.051,0.122l-0.317,0l0.045,-0.122Z" style="fill:#fff;fill-rule:nonzero;"/></g></g><g transform="matrix(0.999433,-0.0336804,0.0336804,0.999433,-0.492141,4.69562)"><g transform="matrix(16.6667,0,0,16.6667,139.132,16.9558)"><path d="M0.318,-0.736c0.046,-0 0.087,0.006 0.123,0.017c0.036,0.012 0.066,0.029 0.09,0.05c0.025,0.022 0.043,0.048 0.056,0.078c0.013,0.031 0.019,0.065 0.019,0.103c-0,0.03 -0.005,0.06 -0.014,0.09c-0.009,0.03 -0.023,0.057 -0.044,0.082c-0.02,0.025 -0.047,0.044 -0.08,0.059c-0.033,0.015 -0.075,0.023 -0.124,0.023l-0.104,0l-0,0.234l-0.145,-0l-0,-0.736l0.223,0Zm0.025,0.362c0.022,0 0.04,-0.004 0.055,-0.011c0.015,-0.007 0.026,-0.017 0.034,-0.028c0.009,-0.011 0.015,-0.023 0.018,-0.035c0.004,-0.013 0.006,-0.024 0.006,-0.035c-0,-0.008 -0.001,-0.018 -0.004,-0.03c-0.002,-0.013 -0.007,-0.025 -0.014,-0.038c-0.007,-0.013 -0.019,-0.023 -0.034,-0.032c-0.015,-0.009 -0.035,-0.013 -0.06,-0.013l-0.104,0l-0,0.222l0.103,0Zm0.136,0.09l0.182,0.284l-0.169,0l-0.186,-0.28l0.173,-0.004Z" style="fill:#fff;fill-rule:nonzero;"/></g></g></g></svg>